<?xml version="1.0" standalone="no"?>
<!DOCTYPE svg PUBLIC "-//W3C//DTD SVG 1.1//EN" "http://www.w3.org/Graphics/SVG/1.1/DTD/svg11.dtd" >
<svg xmlns="http://www.w3.org/2000/svg" xmlns:xlink="http://www.w3.org/1999/xlink" version="1.1">
<metadata>
Created by FontForge 20170731 at Wed Aug  2 12:14:21 2023
 By Aleksey,,,
Copyright (c) 2023 by Designova. All rights reserved.
</metadata>
<defs>
<font id="Novelin-Black" horiz-adv-x="1601" >
  <font-face 
    font-family="Novelin Black"
    font-weight="900"
    font-stretch="normal"
    units-per-em="2048"
    panose-1="0 0 0 0 0 0 0 0 0 0"
    ascent="1638"
    descent="-410"
    x-height="1114"
    cap-height="1394"
    bbox="-1163 -441 3020 2108"
    underline-thickness="100"
    underline-position="-355"
    unicode-range="U+000D-F8FF"
  />
<missing-glyph horiz-adv-x="1220" 
d="M88 1416h1044v-1386h-1044v1386zM276 210h668v1027h-668v-1027z" />
    <glyph glyph-name=".notdef" horiz-adv-x="1220" 
d="M88 1416h1044v-1386h-1044v1386zM276 210h668v1027h-668v-1027z" />
    <glyph glyph-name=".null" horiz-adv-x="0" 
 />
    <glyph glyph-name="nonmarkingreturn" horiz-adv-x="682" 
 />
    <glyph glyph-name="CR" unicode="&#xd;" horiz-adv-x="526" 
 />
    <glyph glyph-name="space" unicode=" " horiz-adv-x="672" 
 />
    <glyph glyph-name="space" unicode="&#xa0;" horiz-adv-x="672" 
 />
    <glyph glyph-name="exclam" unicode="!" horiz-adv-x="689" 
d="M237 294l-5 1160h229l-9 -1160h-215zM209 118q0 57 39 96.5t99 39.5t98 -40.5t38 -95.5t-38 -95.5t-98 -40.5q-59 0 -98.5 40.5t-39.5 95.5z" />
    <glyph glyph-name="quotedbl" unicode="&#x22;" horiz-adv-x="956" 
d="M230 809l-5 645h231l-5 -645h-221zM500 1454h231l-4 -645h-223z" />
    <glyph glyph-name="numbersign" unicode="#" horiz-adv-x="1360" 
d="M236 -15l48 384h-258v224h286l31 255h-262v223h289l49 383h227l-47 -383h247l46 383h230l-48 -383h258v-223h-285l-31 -255h260v-224h-288l-46 -384h-230l46 384h-245l-47 -384h-230zM540 593h247l32 255h-248z" />
    <glyph glyph-name="dollar" unicode="$" horiz-adv-x="1358" 
d="M583 -12q-157 23 -283 101t-172 185l180 159q5 -73 80 -134t195 -85v418q-67 19 -117 38.5t-105 53t-89.5 75t-57.5 104t-23 140.5q0 110 58 209q100 159 334 199v222h225v-219q121 -15 230 -67.5t172 -126.5l-130 -184q-104 121 -272 151v-418q71 -19 124 -38t112.5 -53
t97.5 -75.5t63 -105t25 -142.5q0 -115 -60 -210q-104 -166 -362 -199v-221h-225v223zM418 1041q0 -61 21 -89q45 -53 144 -86v357q-28 -8 -47 -18q-68 -30 -93 -66t-25 -98zM808 211q53 11 80 23q66 28 91.5 64.5t25.5 96.5q0 59 -24 88q-25 32 -66 53.5t-107 41.5v-367z
" />
    <glyph glyph-name="percent" unicode="%" horiz-adv-x="1726" 
d="M265 7l973 1427h222l-975 -1427h-220zM149 1021q0 119 40 214q43 96 124 150t181 54q102 0 185 -55q76 -55 118 -149t42 -214q0 -128 -42 -212q-42 -97 -121.5 -152t-181.5 -55q-94 0 -183 57q-77 52 -119.5 147.5t-42.5 214.5zM333 1021q0 -236 161 -236t161 236
q0 123 -40.5 179.5t-120.5 56.5t-120.5 -56.5t-40.5 -179.5zM885 416q0 131 41 214q41 97 121 151.5t181 54.5q92 0 185 -53q77 -55 120.5 -151t43.5 -216q0 -110 -42 -209q-44 -99 -123.5 -152.5t-183.5 -53.5q-102 0 -182 53q-78 56 -119.5 149.5t-41.5 212.5zM1068 416
q0 -121 40 -177t120 -56q165 0 165 233q0 124 -41.5 181t-123.5 57q-80 0 -120 -57t-40 -181z" />
    <glyph glyph-name="ampersand" unicode="&#x26;" horiz-adv-x="1398" 
d="M1020 134q-163 -154 -422 -154q-137 0 -244 47q-114 49 -181.5 143t-67.5 216q0 97 45 179q61 124 252 252q-34 41 -48 61q-79 117 -79 240q0 97 49 180q48 77 132.5 119.5t190.5 42.5q103 0 177 -37q84 -38 130 -113t46 -174q0 -94 -44 -164q-53 -95 -211 -202l248 -270
q29 85 49 231l216 -60q-26 -196 -101 -350l220 -243l-164 -153zM332 386q0 -33 5.5 -51t22.5 -41q64 -93 238 -93q114 0 199 43q49 28 75 54l-317 350q-104 -72 -125 -88q-60 -52 -79 -86.5t-19 -87.5zM501 1118q0 -28 10 -57q11 -37 85 -124q62 41 90 62q56 44 72.5 69.5
t16.5 67.5q0 60 -24.5 80t-103.5 20q-83 0 -114.5 -26.5t-31.5 -91.5z" />
    <glyph glyph-name="quotesingle" unicode="'" horiz-adv-x="592" 
d="M185 809l-5 645h232l-5 -645h-222z" />
    <glyph glyph-name="parenleft" unicode="(" horiz-adv-x="842" 
d="M460 -370q-118 180 -181.5 425t-63.5 527t64 528.5t183 420.5h269q-152 -185 -221 -414t-69 -535q0 -307 69 -537t221 -415h-271z" />
    <glyph glyph-name="parenright" unicode=")" horiz-adv-x="842" 
d="M111 -370q153 185 221.5 414.5t68.5 537.5q0 306 -69 535t-221 414h270q118 -172 181.5 -419.5t63.5 -529.5q0 -281 -63 -526.5t-181 -425.5h-271z" />
    <glyph glyph-name="asterisk" unicode="*" horiz-adv-x="1046" 
d="M414 719v213l-185 -106l-114 193l184 106l-186 106l118 192l183 -105v213h220v-213l187 105l112 -192l-184 -106l184 -106l-112 -192l-187 105v-213h-220z" />
    <glyph glyph-name="plus" unicode="+" horiz-adv-x="1343" 
d="M560 260v346h-358v225h358v350h225v-350h356v-225h-356v-346h-225z" />
    <glyph glyph-name="comma" unicode="," horiz-adv-x="675" 
d="M184 -158q70 103 89 166q-44 38 -44 103q0 55 37.5 95.5t97.5 40.5t98.5 -40.5t38.5 -95.5q0 -101 -28.5 -179.5t-85.5 -180.5z" />
    <glyph glyph-name="hyphen" unicode="-" horiz-adv-x="941" 
d="M147 452v224h649v-224h-649z" />
    <glyph glyph-name="period" unicode="." horiz-adv-x="621" 
d="M310 -26q-59 0 -97.5 40.5t-38.5 96.5q0 55 38.5 95.5t97.5 40.5q60 0 98.5 -40.5t38.5 -95.5q0 -56 -38.5 -96.5t-98.5 -40.5z" />
    <glyph glyph-name="slash" unicode="/" horiz-adv-x="995" 
d="M43 -198l671 1912h237l-671 -1912h-237z" />
    <glyph glyph-name="zero" unicode="0" horiz-adv-x="1856" 
d="M928 -50q-362 0 -568 202t-206 538q0 164 52.5 300t150.5 233.5t244 151.5t327 54q240 0 416 -93.5t267 -260t91 -385.5q0 -335 -206.5 -537.5t-567.5 -202.5zM380 690q0 -258 139 -387.5t409 -129.5q269 0 408.5 129.5t139.5 387.5q0 256 -139.5 385t-408.5 129
q-270 0 -409 -129t-139 -385z" />
    <glyph glyph-name="one" unicode="1" horiz-adv-x="956" 
d="M464 -15v1113l-388 -198v245l466 249h146v-1409h-224z" />
    <glyph glyph-name="two" unicode="2" horiz-adv-x="1625" 
d="M116 117q35 176 218.5 323t478.5 260q86 32 128.5 49t101.5 42.5t86 43t55.5 41.5t39 49t10.5 54q0 105 -113.5 165t-297.5 60q-393 0 -485 -324l-198 104q58 198 241 321.5t442 123.5q122 0 235.5 -30.5t203.5 -86t144 -142.5t54 -191q0 -56 -16.5 -105.5t-42.5 -88.5
t-71 -76.5t-87.5 -64.5t-108.5 -57.5t-117 -51t-128 -49.5q-342 -128 -476 -279h1078v-222h-1375v132z" />
    <glyph glyph-name="three" unicode="3" horiz-adv-x="1701" 
d="M837 -50q-306 0 -489 123.5t-236 324.5l205 102q18 -80 51 -136.5t92 -101.5t152.5 -67t224.5 -22q236 0 360 64.5t124 177.5q0 114 -124 179t-360 65h-109v172l403 339h-962v224h1378v-167l-446 -373q204 -45 325 -160.5t121 -278.5q0 -140 -93 -247t-253.5 -162.5
t-363.5 -55.5z" />
    <glyph glyph-name="four" unicode="4" horiz-adv-x="1630" 
d="M970 -42v304h-844v159l888 973h181v-910h309v-222h-309v-304h-225zM482 484h488v534z" />
    <glyph glyph-name="five" unicode="5" horiz-adv-x="1687" 
d="M865 -50q-297 0 -488.5 131.5t-240.5 338.5l200 106q35 -168 160.5 -260.5t368.5 -92.5q228 0 352.5 72t124.5 192q0 136 -119.5 201t-364.5 65q-137 0 -261.5 -27t-264.5 -91l-144 41l178 768h1075v-224h-895l-72 -297q172 53 384 53q154 0 281.5 -29.5t224 -88
t150 -153t53.5 -218.5q0 -142 -91 -253.5t-251 -172.5t-360 -61z" />
    <glyph glyph-name="six" unicode="6" horiz-adv-x="1748" 
d="M924 -50q-357 0 -563.5 202.5t-206.5 537.5q0 164 53 300.5t151 233.5t243 151t323 54q458 0 667 -337l-175 -144q-82 136 -196 196t-296 60q-252 0 -391 -117t-152 -349q206 184 543 184q196 0 353 -61t246 -172.5t89 -252.5v-1q0 -141 -89 -252t-246 -172t-353 -61z
M428 431q113 -258 496 -258q222 0 342 71.5t121 191.5q-1 119 -121 191t-342 72q-371 0 -496 -268z" />
    <glyph glyph-name="seven" unicode="7" horiz-adv-x="1485" 
d="M377 -15l748 1185h-1067v224h1377v-151l-789 -1258h-269z" />
    <glyph glyph-name="eight" unicode="8" horiz-adv-x="1762" 
d="M881 -50q-208 0 -373 55t-259.5 158t-94.5 236q0 222 209 352q-163 102 -163 278q0 95 57.5 172.5t153.5 126.5t217 75t253 26t252.5 -26t216.5 -75t153 -126.5t57 -172.5q0 -177 -162 -278q210 -130 210 -352q0 -133 -95 -236t-260 -158t-372 -55zM380 399
q0 -101 129.5 -163.5t371.5 -62.5t371 62.5t129 163.5q0 244 -500 244q-501 0 -501 -244zM427 1029q0 -91 113.5 -127.5t340.5 -36.5q150 0 246 14t152 51t56 99q0 78 -124.5 126.5t-329.5 48.5q-206 0 -330 -48.5t-124 -126.5z" />
    <glyph glyph-name="nine" unicode="9" horiz-adv-x="1750" 
d="M825 -50q-461 0 -666 337l175 143q81 -137 194.5 -197t296.5 -60q251 0 390 117t152 349q-206 -183 -542 -183q-196 0 -353 61.5t-246 172t-90 250.5v3q1 140 90 251.5t246 173t353 61.5q178 0 323.5 -54t243.5 -151t151 -233.5t53 -300.5q0 -335 -207 -537.5
t-564 -202.5zM363 941q0 -119 119.5 -190.5t342.5 -71.5q370 0 496 266q-113 259 -496 259q-224 0 -343 -71.5t-119 -191.5z" />
    <glyph glyph-name="colon" unicode=":" horiz-adv-x="621" 
d="M310 856q-59 0 -97.5 40.5t-38.5 96.5q0 54 38.5 94.5t97.5 40.5q60 0 98.5 -40t38.5 -95q0 -56 -38.5 -96.5t-98.5 -40.5zM174 111q0 55 38.5 95.5t97.5 40.5q60 0 98.5 -40.5t38.5 -95.5q0 -56 -38.5 -96.5t-98.5 -40.5q-59 0 -97.5 40.5t-38.5 96.5z" />
    <glyph glyph-name="semicolon" unicode=";" horiz-adv-x="663" 
d="M174 -158q65 99 85 166q-43 38 -43 103q0 55 38 95.5t98 40.5t98.5 -40.5t38.5 -95.5q0 -102 -29 -182t-88 -177zM216 993q0 55 38 95t98 40t98.5 -40.5t38.5 -94.5q0 -56 -38.5 -96.5t-98.5 -40.5t-98 40.5t-38 96.5z" />
    <glyph glyph-name="less" unicode="&#x3c;" horiz-adv-x="1382" 
d="M1160 243l-938 395v164l938 393v-244l-554 -230l554 -230v-248z" />
    <glyph glyph-name="equal" unicode="=" horiz-adv-x="1465" 
d="M263 407v225h938v-225h-938zM263 809v223h938v-223h-938z" />
    <glyph glyph-name="greater" unicode="&#x3e;" horiz-adv-x="1382" 
d="M222 243v248l554 230l-554 230v244l938 -393v-164z" />
    <glyph glyph-name="question" unicode="?" horiz-adv-x="1503" 
d="M638 792q251 -8 389.5 45.5t138.5 159.5q0 99 -103 153t-279 54q-398 0 -489 -321l-203 97q55 199 243.5 324t448.5 125q117 0 225.5 -28.5t194.5 -81.5t137.5 -137t51.5 -185q0 -92 -41 -166.5t-114.5 -125t-167.5 -81.5t-207 -44v-326h-225v538zM619 111q0 55 38 95.5
t98 40.5t97.5 -40.5t37.5 -95.5q0 -56 -37.5 -96.5t-97.5 -40.5t-98 40.5t-38 96.5z" />
    <glyph glyph-name="at" unicode="@" horiz-adv-x="1967" 
d="M979 -343q-193 0 -358.5 64t-284.5 184q-122 118 -186.5 282t-64.5 358t65.5 357t188.5 284q123 117 288.5 179.5t357.5 62.5t357.5 -62t285.5 -178q123 -119 188.5 -281t65.5 -355q0 -159 -35 -278q-38 -124 -112.5 -193.5t-169.5 -69.5q-81 0 -139.5 42t-80.5 114
q-147 -156 -370 -156q-153 0 -267 72q-119 69 -187 193t-68 276q0 159 69 282q69 122 187.5 190.5t265.5 68.5q146 0 263 -70q56 -32 97 -73v137h160v-826q0 -57 13.5 -73t56.5 -16q22 0 35 6.5t31 26.5q89 92 89 347q0 321 -203 521q-202 194 -532 194q-327 0 -532 -199
q-206 -200 -206 -523q0 -324 202 -526q206 -201 530 -201q97 0 200.5 28.5t169.5 78.5l70 -147q-85 -59 -207 -90t-233 -31zM616 552q0 -113 48 -198q98 -182 311 -182q107 0 186 47q174 102 174 333q0 117 -48 202q-99 178 -312 178q-109 0 -185 -44q-174 -105 -174 -336z
" />
    <glyph glyph-name="A" unicode="A" horiz-adv-x="1866" 
d="M56 -15l803 1409h148l803 -1409h-256l-212 370h-817l-213 -370h-256zM652 578h562l-280 491z" />
    <glyph glyph-name="B" unicode="B" horiz-adv-x="1846" 
d="M268 -15v1409h890q119 0 216 -24.5t169 -72.5t111.5 -126t39.5 -180q0 -185 -126 -288q126 -106 126 -298q0 -209 -145 -314.5t-391 -105.5h-890zM494 207h664q174 0 242.5 43t68.5 155q0 110 -67.5 150t-243.5 40h-664v-388zM494 817h664q177 0 244 36.5t67 137.5
q0 102 -68.5 141.5t-242.5 39.5h-664v-355z" />
    <glyph glyph-name="C" unicode="C" horiz-adv-x="1799" 
d="M968 -50q-188 0 -341 53.5t-256.5 150.5t-160 234t-56.5 302q0 164 56.5 301t160 234t257 150.5t340.5 53.5q264 0 450.5 -101t280.5 -284l-185 -130q-75 150 -203.5 220t-342.5 70q-287 0 -437.5 -129.5t-150.5 -384.5q0 -257 150.5 -387t437.5 -130q214 1 342.5 72.5
t203.5 222.5l184 -132q-93 -183 -279.5 -284t-450.5 -102z" />
    <glyph glyph-name="D" unicode="D" horiz-adv-x="1870" 
d="M268 -15v1409h639q240 0 423.5 -86.5t284.5 -246.5t101 -371q0 -320 -222.5 -512.5t-586.5 -192.5h-639zM494 207h413q277 0 429.5 122t152.5 361q0 237 -152.5 358.5t-429.5 121.5h-413v-963z" />
    <glyph glyph-name="E" unicode="E" horiz-adv-x="1713" 
d="M268 -15v1409h1287v-224h-1061v-359h922v-222h-922v-382h1079v-222h-1305z" />
    <glyph glyph-name="F" unicode="F" horiz-adv-x="1647" 
d="M268 -15v1409h1287v-224h-1061v-379h922v-223h-922v-583h-226z" />
    <glyph glyph-name="G" unicode="G" horiz-adv-x="1911" 
d="M968 -50q-188 0 -341 53.5t-256.5 150.5t-160 234t-56.5 302q0 164 56.5 301t160 234t257 150.5t340.5 53.5q264 0 450.5 -101t280.5 -284l-185 -130q-75 150 -203.5 220t-342.5 70q-287 0 -437.5 -129.5t-150.5 -384.5q0 -257 150.5 -387t437.5 -130q322 0 480 180v236
h-646v222h871v-562h-19l-9 -12q-106 -133 -281.5 -210t-395.5 -77z" />
    <glyph glyph-name="H" unicode="H" horiz-adv-x="1946" 
d="M268 -15v1409h226v-586h959v586h225v-1409h-225v601h-959v-601h-226z" />
    <glyph glyph-name="I" unicode="I" horiz-adv-x="762" 
d="M268 -15v1409h226v-1409h-226z" />
    <glyph glyph-name="J" unicode="J" horiz-adv-x="1808" 
d="M903 -50q-180 0 -322.5 63.5t-228.5 172.5t-124.5 254t-22.5 309h224q-29 -277 92 -426.5t382 -149.5q238 0 359.5 124t121.5 358v517h-718v223h940v-1h2v-739q0 -148 -46.5 -276t-133.5 -224t-222 -150.5t-303 -54.5z" />
    <glyph glyph-name="K" unicode="K" horiz-adv-x="1897" 
d="M268 -15v1409h226v-719l987 719h376l-799 -583l766 -826h-307l-644 690l-379 -275v-415h-226z" />
    <glyph glyph-name="L" unicode="L" horiz-adv-x="1543" 
d="M268 -15v1409h226v-1187h991v-222h-1217z" />
    <glyph glyph-name="M" unicode="M" horiz-adv-x="2190" 
d="M268 -15v1409h177l649 -779l654 779h174v-1409h-226v999l-555 -665h-91l-556 665v-999h-226z" />
    <glyph glyph-name="N" unicode="N" horiz-adv-x="1946" 
d="M268 -15v1409h177l1008 -1029v1029h225v-1409h-167l-1017 1037v-1037h-226z" />
    <glyph glyph-name="O" unicode="O" horiz-adv-x="1924" 
d="M968 -50q-188 0 -341 53.5t-256.5 150.5t-160 234t-56.5 302q0 200 82.5 359.5t238.5 255.5q198 124 493 124t492 -124q156 -97 239 -256t83 -359q0 -336 -218.5 -538t-595.5 -202zM380 690q0 -259 152.5 -387t435.5 -130q284 2 435.5 130t151.5 387q0 323 -263 449
q-130 65 -324 65q-193 0 -324 -65q-264 -127 -264 -449z" />
    <glyph glyph-name="P" unicode="P" horiz-adv-x="1786" 
d="M268 -15v1409h875q241 0 388 -125.5t147 -334.5t-147 -335t-388 -126h-649v-488h-226zM494 697h649q162 0 235 57.5t73 179.5q0 121 -73 178.5t-235 57.5h-649v-473z" />
    <glyph glyph-name="Q" unicode="Q" horiz-adv-x="1924" 
d="M1350 18q-168 -68 -382 -68q-188 0 -341 53.5t-256.5 150.5t-160 234t-56.5 302q0 200 82.5 359.5t238.5 255.5q198 124 493 124t492 -124q156 -97 239 -256t83 -359q0 -171 -61 -313.5t-177 -241.5l203 -236l-174 -138zM380 690q0 -259 152.5 -387t435.5 -130
q126 2 224 29l-198 228l174 139l229 -263q80 65 119 157.5t39 226.5q0 323 -263 449q-130 65 -324 65q-193 0 -324 -65q-264 -127 -264 -449z" />
    <glyph glyph-name="R" unicode="R" horiz-adv-x="1938" 
d="M268 -15v1409h875q241 0 388 -125.5t147 -334.5q0 -166 -95.5 -282t-261.5 -157l451 -510h-299l-432 488h-547v-488h-226zM494 697h649q162 0 235 57.5t73 179.5q0 121 -73 178.5t-235 57.5h-649v-473z" />
    <glyph glyph-name="S" unicode="S" horiz-adv-x="1730" 
d="M641 -37q-263 0 -408 145t-101 365h222q-33 -149 37.5 -220t266.5 -71h340q163 0 236 48.5t73 147.5q0 103 -73 151.5t-236 48.5h-340q-240 0 -388 114t-148 305t148 303t388 112h358q173 0 299.5 -65.5t182.5 -182.5t26 -262h-221q33 149 -37.5 220t-267.5 71h-340
q-164 0 -236.5 -48t-72.5 -148q0 -103 72.5 -151.5t236.5 -48.5h340q241 0 388 -113.5t147 -305.5q0 -189 -147.5 -302t-387.5 -113h-357z" />
    <glyph glyph-name="T" unicode="T" horiz-adv-x="1562" 
d="M669 -15v1185h-613v224h1450v-224h-613v-1185h-224z" />
    <glyph glyph-name="U" unicode="U" horiz-adv-x="1886" 
d="M944 -50q-135 0 -249.5 35.5t-198 99.5t-142 152t-87.5 194t-29 224v739h225v-739q0 -234 121.5 -358t359.5 -124q237 0 358 124t121 358v739h225v-739q0 -148 -46.5 -276t-133.5 -224t-221.5 -150.5t-302.5 -54.5z" />
    <glyph glyph-name="V" unicode="V" horiz-adv-x="1866" 
d="M859 -15l-803 1409h256l622 -1086l620 1086h256l-803 -1409h-148z" />
    <glyph glyph-name="W" unicode="W" horiz-adv-x="2345" 
d="M612 -15l-526 1409h239l372 -998l391 998h169l389 -998l374 998h239l-527 -1409h-166l-393 1008l-396 -1008h-165z" />
    <glyph glyph-name="X" unicode="X" horiz-adv-x="1824" 
d="M62 -15l694 705l-694 704h316l535 -545l533 545h316l-694 -704l694 -705h-316l-535 544l-533 -544h-316z" />
    <glyph glyph-name="Y" unicode="Y" horiz-adv-x="1801" 
d="M789 -15v433l-729 976h283l559 -750l559 750h280l-727 -976v-433h-225z" />
    <glyph glyph-name="Z" unicode="Z" horiz-adv-x="1608" 
d="M88 -15v163l1022 1022h-991v224h1368v-165l-1022 -1022h1049v-222h-1426z" />
    <glyph glyph-name="bracketleft" unicode="[" horiz-adv-x="786" 
d="M230 -370v1901h426v-224h-200v-1453h200v-224h-426z" />
    <glyph glyph-name="backslash" unicode="\" horiz-adv-x="994" 
d="M714 -198l-671 1912h237l671 -1912h-237z" />
    <glyph glyph-name="bracketright" unicode="]" horiz-adv-x="788" 
d="M130 -370v224h201v1453h-201v224h428v-1901h-428z" />
    <glyph glyph-name="asciicircum" unicode="^" horiz-adv-x="1131" 
d="M75 249l393 940h165l390 -940h-243l-229 555l-231 -555h-245z" />
    <glyph glyph-name="underscore" unicode="_" horiz-adv-x="1063" 
d="M-21 -50v225h1104v-225h-1104z" />
    <glyph glyph-name="grave" unicode="`" horiz-adv-x="1585" 
d="M691 1095l-345 252l42 139h164l497 -391h-358z" />
    <glyph glyph-name="a" unicode="a" horiz-adv-x="1524" 
d="M766 -50q-300 0 -475 164t-175 435q0 272 175 436t475 164q202 0 347 -77v77h225v-1164h-225v40q-147 -75 -347 -75zM342 549q0 -193 104.5 -284.5t319.5 -91.5q246 0 347 132v490q-102 132 -347 132q-215 0 -319.5 -92t-104.5 -286z" />
    <glyph glyph-name="b" unicode="b" horiz-adv-x="1623" 
d="M804 -50q-198 0 -348 75v-40h-224v1478h224v-391q146 77 348 77q299 0 474 -164t175 -436q0 -271 -175 -435t-474 -164zM456 305q101 -132 348 -132q214 0 318.5 91.5t104.5 284.5q0 194 -104.5 286t-318.5 92q-246 0 -348 -132v-490z" />
    <glyph glyph-name="c" unicode="c" horiz-adv-x="1504" 
d="M1388 291q-67 -161 -223 -251t-373 -90q-300 0 -475 164t-175 435q0 272 175 436t475 164q214 0 369 -88.5t224 -247.5l-200 -101q-44 111 -138.5 163t-254.5 52q-216 0 -320.5 -92t-104.5 -286q0 -193 104.5 -284.5t320.5 -91.5q163 0 259 54.5t140 170.5z" />
    <glyph glyph-name="d" unicode="d" horiz-adv-x="1623" 
d="M792 -50q-300 0 -475 164t-175 435q0 272 175 436t475 164q200 0 348 -77v391h223v-1478h-223v40q-152 -75 -348 -75zM367 549q0 -193 104.5 -284.5t320.5 -91.5q245 0 348 132v490q-104 132 -348 132q-216 0 -320.5 -92t-104.5 -286z" />
    <glyph glyph-name="e" unicode="e" horiz-adv-x="1541" 
d="M790 -50q-298 0 -473 164t-175 435q0 272 175 436t475 164q299 0 474 -164t175 -436v-128h-1059q34 -127 134 -187.5t276 -60.5q180 0 285.5 48t201.5 173l141 -184q-118 -138 -266 -199t-362 -61h-2zM375 645h833q-25 144 -127.5 213t-288.5 69q-187 0 -289.5 -69
t-127.5 -213z" />
    <glyph glyph-name="f" unicode="f" horiz-adv-x="999" 
d="M251 -15v906h-205v224h205v53q0 104 50 178.5t126 109t167 43.5t172 -8.5t141 -58t74 -94.5l-91 -110l-78 1q-2 21 -37.5 37.5t-85 20t-98 -4t-82.5 -38.5t-34 -80v-49h426v-224h-426v-906h-224z" />
    <glyph glyph-name="g" unicode="g" horiz-adv-x="1621" 
d="M748 -397q-204 0 -347 55t-259 178l138 182q91 -107 194 -149.5t274 -42.5q332 0 399 231q-166 -107 -385 -107q-191 0 -332.5 78t-214 212.5t-72.5 308.5q0 266 166 433t453 167q235 0 403 -119v85h224v-912q2 -271 -171 -435.5t-470 -164.5zM368 549q0 -376 394 -376
q143 0 241.5 53t161.5 164v320q-63 111 -161.5 164t-241.5 53q-394 0 -394 -378z" />
    <glyph glyph-name="h" unicode="h" 
d="M232 -15v1478h224v-430q160 116 391 116q142 0 251.5 -42.5t176.5 -118t100.5 -173.5t33.5 -216v-614h-225v614q0 175 -74.5 251.5t-262.5 76.5q-141 0 -236 -52.5t-155 -171.5v-718h-224z" />
    <glyph glyph-name="i" unicode="i" horiz-adv-x="695" 
d="M236 -15v1130h225v-1130h-225zM206 1331q0 60 42.5 102t98.5 42q60 0 101 -42.5t41 -101.5q0 -54 -40.5 -98t-101.5 -44q-57 0 -99 43.5t-42 98.5z" />
    <glyph glyph-name="j" unicode="j" horiz-adv-x="681" 
d="M-25 -154q55 -16 105.5 -20.5t92 3.5t66.5 35.5t25 72.5v1179h224v-1183q0 -73 -24.5 -131t-66 -95t-94.5 -62t-111 -33.5t-114.5 -8t-105.5 11.5t-84 29zM236 1331q0 60 42.5 102t98.5 42q60 0 101 -42.5t41 -101.5q0 -54 -40 -98t-102 -44q-57 0 -99 43.5t-42 98.5z
" />
    <glyph glyph-name="k" unicode="k" horiz-adv-x="1562" 
d="M232 -15v1478h224v-857l698 514h372l-645 -476l598 -659h-301l-479 525l-243 -180v-345h-224z" />
    <glyph glyph-name="l" unicode="l" horiz-adv-x="705" 
d="M240 -15v1478h225v-1478h-225z" />
    <glyph glyph-name="m" unicode="m" horiz-adv-x="2392" 
d="M232 -15v1130h224v-73q156 107 355 107q279 0 410 -193q85 94 203.5 143.5t249.5 49.5q132 0 232 -44.5t158.5 -122t87 -173t28.5 -206.5v-618h-225v618q0 169 -62.5 246.5t-218.5 77.5q-129 0 -216.5 -57t-143.5 -178q4 -54 4 -89v-618h-225v618q0 169 -63 246.5
t-219 77.5q-130 0 -214 -53t-141 -169v-720h-224z" />
    <glyph glyph-name="n" unicode="n" 
d="M232 -15v1130h224v-82q160 116 391 116q142 0 251.5 -42.5t176.5 -118t100.5 -173.5t33.5 -216v-614h-225v614q0 175 -74.5 251.5t-262.5 76.5q-141 0 -236 -52.5t-155 -171.5v-718h-224z" />
    <glyph glyph-name="o" unicode="o" horiz-adv-x="1583" 
d="M792 -50q-300 0 -475 164t-175 435q0 272 175 436t475 164q299 0 474 -164t175 -436q0 -271 -175 -435t-474 -164zM367 549q0 -193 104.5 -284.5t320.5 -91.5q215 0 319.5 91.5t104.5 284.5q0 194 -104.5 286t-319.5 92q-216 0 -320.5 -92t-104.5 -286z" />
    <glyph glyph-name="p" unicode="p" horiz-adv-x="1621" 
d="M232 -364v1479h224v-84q168 118 401 118q287 0 454.5 -167t167.5 -433q0 -129 -43 -239.5t-121.5 -190t-196 -124.5t-261.5 -45q-230 0 -401 119v-433h-224zM456 390q127 -217 401 -217q395 0 395 376q0 378 -395 378q-275 0 -401 -218v-319z" />
    <glyph glyph-name="q" unicode="q" horiz-adv-x="1623" 
d="M1140 26q-152 -76 -348 -76q-300 0 -475 164t-175 435q0 272 175 436t475 164q202 0 348 -76v42h223v-1479h-223v390zM367 549q0 -193 104.5 -284.5t320.5 -91.5q245 0 348 132v490q-104 132 -348 132q-216 0 -320.5 -92t-104.5 -286z" />
    <glyph glyph-name="r" unicode="r" horiz-adv-x="1104" 
d="M232 -15v1130h224v-82q160 116 391 116q94 0 117 -24l20 -36v-173q-93 11 -137 11q-141 0 -236 -52.5t-155 -171.5v-718h-224z" />
    <glyph glyph-name="s" unicode="s" horiz-adv-x="1416" 
d="M548 -50q-227 0 -348.5 129.5t-74.5 323.5h229q-41 -127 3.5 -179.5t202.5 -52.5h270q126 0 176.5 31t50.5 104q0 72 -51 103.5t-176 31.5h-270q-199 0 -323.5 96.5t-124.5 258.5t124 258t324 96h282q228 0 349.5 -129t75.5 -324h-228q38 127 -6.5 179.5t-202.5 52.5
h-270q-125 0 -175 -30.5t-50 -102.5t50.5 -103.5t174.5 -31.5h270q201 0 325.5 -97t124.5 -258q0 -163 -124.5 -259.5t-325.5 -96.5h-282z" />
    <glyph glyph-name="t" unicode="t" horiz-adv-x="1002" 
d="M976 113q-7 -36 -36 -67t-73 -51.5t-98 -34t-113 -13t-117 9.5t-110 35.5t-91.5 63.5t-63 94t-23.5 127v614h-205v224h205v222h224v-222h472v-224h-472v-610q0 -91 98 -118q78 -21 162 6q64 21 66 53q1 5 -1 10l54 30z" />
    <glyph glyph-name="u" unicode="u" 
d="M773 -50q-142 0 -251.5 42.5t-176 118.5t-100 174t-33.5 216v614h224v-614q0 -176 74 -252t263 -76q142 0 237 52t154 172v718h225v-1130h-225v80q-163 -115 -391 -115z" />
    <glyph glyph-name="v" unicode="v" horiz-adv-x="1566" 
d="M708 -11l-640 1125h255l459 -802l459 802h257l-641 -1125h-149z" />
    <glyph glyph-name="w" unicode="w" horiz-adv-x="1975" 
d="M531 -15l-443 1130h240l286 -732l290 732h168l290 -731l285 731h240l-444 -1130h-163l-292 734l-295 -734h-162z" />
    <glyph glyph-name="x" unicode="x" horiz-adv-x="1558" 
d="M74 -15l551 564l-551 566h312l393 -405l396 405h309l-549 -566l549 -564h-311l-394 405l-394 -405h-311z" />
    <glyph glyph-name="y" unicode="y" horiz-adv-x="1547" 
d="M392 -363l245 446l-569 1032h257l441 -798l441 798h256l-816 -1478h-255z" />
    <glyph glyph-name="z" unicode="z" horiz-adv-x="1336" 
d="M92 -16v160l747 747h-723v224h1099v-162l-747 -747h770v-222h-1146z" />
    <glyph glyph-name="braceleft" unicode="{" horiz-adv-x="853" 
d="M582 -370q-133 0 -210.5 74t-77.5 206v559h-147v224h147v557q0 137 77 209t211 72h141v-224h-156q-35 0 -41 -7t-6 -50v-557q0 -65 -22 -112q22 -50 22 -112v-559q0 -42 6 -49t41 -7h156v-224h-141z" />
    <glyph glyph-name="bar" unicode="|" horiz-adv-x="711" 
d="M242 -370v1901h227v-1901h-227z" />
    <glyph glyph-name="braceright" unicode="}" horiz-adv-x="850" 
d="M130 -370v224h154q35 0 41 7t6 49v559q0 61 23 110q-23 49 -23 114v557q0 43 -6 50t-41 7h-154v224h142q133 0 209.5 -72t76.5 -209v-557h146v-224h-146v-559q0 -132 -77 -206t-209 -74h-142z" />
    <glyph glyph-name="asciitilde" unicode="~" horiz-adv-x="1302" 
d="M837 508q-38 0 -74.5 10t-59 20t-54 34t-40 32t-36.5 35q-41 42 -61 56t-47 14q-35 0 -50.5 -14.5t-21.5 -58.5t1 -124h-222q-21 183 63 301t230 118q47 0 88 -12t75.5 -35.5t53.5 -40.5t46 -44q43 -42 62 -55t47 -13q53 0 66 36.5t2 159.5h225q20 -179 -61.5 -299
t-231.5 -120z" />
    <glyph glyph-name="exclamdown" unicode="&#xa1;" horiz-adv-x="677" 
d="M224 -297l8 1160h212l11 -1160h-231zM202 1039q0 56 39 96.5t98 40.5q60 0 98.5 -40.5t38.5 -96.5t-38.5 -96.5t-98.5 -40.5q-59 0 -98 40.5t-39 96.5z" />
    <glyph glyph-name="cent" unicode="&#xa2;" horiz-adv-x="1226" 
d="M543 -9q-90 20 -165 65q-127 72 -200 202.5t-73 293.5q0 168 72 297q58 104 153 172.5t213 91.5v226h224v-223q115 -20 209 -83.5t149 -168.5l-171 -178q-29 90 -73.5 137t-113.5 65v-671q68 19 113 66.5t76 134.5l169 -180q-55 -104 -149.5 -167.5t-208.5 -81.5v-224
h-224v226zM332 552q0 -109 42 -182q64 -113 169 -147v659q-31 -12 -51 -22q-81 -48 -120.5 -122.5t-39.5 -185.5z" />
    <glyph glyph-name="sterling" unicode="&#xa3;" horiz-adv-x="1560" 
d="M135 -15v224h220v399h-220v223h220v130q0 150 59 256q62 117 185 180t297 63q336 0 504 -200l-146 -176q-70 84 -152 118t-206 34q-177 0 -246 -65t-69 -216v-124h545v-223h-545v-399h768v-224h-1214z" />
    <glyph glyph-name="currency" unicode="&#xa4;" 
d="M257 -46l-159 162l203 208q-107 149 -107 333q0 187 107 340l-208 211l167 151l206 -207q155 100 334 100q178 0 335 -98l205 207l164 -153l-205 -209q114 -155 114 -342q0 -185 -113 -338l201 -203l-158 -162l-209 212q-152 -98 -334 -98q-179 0 -333 99zM419 657
q0 -102 49 -176q117 -187 332 -187q107 0 196 49q190 108 190 314q0 100 -50 183q-118 185 -336 185q-104 0 -191 -48q-190 -112 -190 -320z" />
    <glyph glyph-name="yen" unicode="&#xa5;" horiz-adv-x="1621" 
d="M696 -15v287h-438v223h438v30h-438v222h315l-550 707h283l505 -646l505 646h283l-551 -707h314v-222h-439v-30h439v-223h-439v-287h-227z" />
    <glyph glyph-name="brokenbar" unicode="&#xa6;" horiz-adv-x="544" 
d="M160 -370v830h224v-830h-224zM160 703v828h224v-828h-224z" />
    <glyph glyph-name="section" unicode="&#xa7;" horiz-adv-x="1192" 
d="M576 -203q-82 0 -156 17q-106 28 -190.5 83t-121.5 122l116 160l57 -11q13 -54 98.5 -100.5t196.5 -46.5q119 0 160 26.5t41 101.5q0 54 -36 79.5t-135 51.5q-13 3 -39 10q-42 11 -64 16.5t-62.5 18t-63.5 23t-57.5 28.5t-54.5 36t-43.5 44t-36 55t-21 67t-8.5 81
q0 151 110 248q-65 83 -65 201q0 117 61 197q55 76 155 115.5t231 39.5q130 0 257 -51.5t179 -135.5l-140 -186q-80 149 -296 149q-130 0 -175.5 -27t-45.5 -101q0 -56 36 -80.5t137 -50.5q156 -40 196 -55q172 -61 225 -181q28 -63 28 -144q0 -149 -112 -249
q66 -86 66 -203q0 -114 -58 -195q-106 -153 -369 -153zM380 659q0 -58 37 -85.5t136 -51.5q16 -2 34 -7l14 -3q88 -23 125 -36q54 15 76 41.5t22 79.5q0 57 -36.5 83t-138.5 52l-50 14q-54 12 -119 33q-54 -15 -77 -41.5t-23 -78.5z" />
    <glyph glyph-name="dieresis" unicode="&#xa8;" horiz-adv-x="1391" 
d="M-664 1584q-57 0 -99 43t-42 98q0 60 42.5 102t98.5 42q61 0 101.5 -42.5t40.5 -101.5q0 -54 -40 -97.5t-102 -43.5zM-1105 1725q0 60 42.5 102t98.5 42q61 0 101 -42t40 -102q0 -54 -39.5 -97.5t-101.5 -43.5q-57 0 -99 43t-42 98z" />
    <glyph glyph-name="copyright" unicode="&#xa9;" horiz-adv-x="1721" 
d="M859 11q-148 0 -277.5 54.5t-226.5 152.5q-97 97 -150 226.5t-53 276.5q0 144 54 273.5t151 227.5t227.5 152t277.5 54t277.5 -53.5t226.5 -150.5t148.5 -225t52.5 -274q0 -148 -54 -279t-151 -228q-98 -98 -227.5 -152.5t-275.5 -54.5zM311 721q0 -230 158 -390
q157 -159 390 -159q227 0 390 161q159 156 159 392q0 229 -155 386q-156 156 -391 156t-391 -158q-160 -160 -160 -388zM435 721q0 127 58 231q56 101 155.5 158.5t224.5 57.5q112 0 207.5 -50.5t150.5 -144.5l-124 -120q-35 82 -92 118t-144 36q-81 0 -141 -34
q-132 -77 -132 -252q0 -91 34 -152q40 -71 97.5 -104.5t141.5 -33.5q87 0 144 36.5t92 120.5l124 -123q-55 -94 -150.5 -143.5t-207.5 -49.5q-129 0 -223 57q-101 57 -158 159t-57 233z" />
    <glyph glyph-name="ordfeminine" unicode="&#xaa;" horiz-adv-x="840" 
d="M437 770q-188 0 -299.5 105.5t-111.5 279.5q0 173 111.5 278.5t299.5 105.5q81 0 153 -22v22h218v-750h-218v3q-72 -22 -153 -22zM245 1155q0 -94 42.5 -130.5t149.5 -36.5q112 0 153 44v246q-43 44 -153 44q-107 0 -149.5 -36.5t-42.5 -130.5z" />
    <glyph glyph-name="guillemotleft" unicode="&#xab;" horiz-adv-x="1133" 
d="M397 121l-345 431l345 434h282l-340 -434l340 -431h-282zM474 552l345 434h282l-340 -434l340 -431h-282z" />
    <glyph glyph-name="logicalnot" unicode="&#xac;" horiz-adv-x="1253" 
d="M869 275v331h-711v225h937v-556h-226z" />
    <glyph glyph-name="uni00AD" unicode="&#xad;" horiz-adv-x="837" 
d="M94 452v224h647v-224h-647z" />
    <glyph glyph-name="registered" unicode="&#xae;" horiz-adv-x="1594" 
d="M795 11q-148 0 -278 54t-226 153q-97 96 -150 226t-53 277q0 144 54 274t151 227q96 98 227 152t279 54q147 0 277 -53.5t226 -150.5t149 -225t53 -274q0 -148 -54 -279t-152 -228q-99 -99 -227.5 -153t-275.5 -54zM248 721q0 -231 157 -390t390 -159q183 0 323 103h-82
l-178 276h-199v-276h-162v888h338q153 0 247.5 -84.5t94.5 -221.5q0 -88 -40.5 -156t-113.5 -107l166 -257q155 157 155 388q0 229 -154 386q-158 156 -391 156q-234 0 -392 -158q-159 -159 -159 -388zM657 712h174q99 0 141.5 33.5t42.5 111.5q0 77 -42.5 111t-141.5 34
h-174v-290z" />
    <glyph glyph-name="macron" unicode="&#xaf;" horiz-adv-x="1376" 
d="M344 1177v226h688v-226h-688z" />
    <glyph glyph-name="degree" unicode="&#xb0;" horiz-adv-x="1008" 
d="M505 721q-97 0 -185 50q-86 50 -135.5 134t-49.5 186q0 99 49 186q50 84 135.5 133.5t185.5 49.5q98 0 187 -50q83 -49 132 -134t49 -185q0 -104 -49 -187q-50 -83 -134.5 -133t-184.5 -50zM360 1091q0 -71 37.5 -109.5t107.5 -38.5q69 0 106 38.5t37 109.5t-37 109
t-106 38q-70 0 -107.5 -38t-37.5 -109z" />
    <glyph glyph-name="plusminus" unicode="&#xb1;" horiz-adv-x="1351" 
d="M562 260v346h-356v225h356v350h227v-350h356v-225h-356v-346h-227zM206 -15v224h939v-224h-939z" />
    <glyph glyph-name="uni00B2" unicode="&#xb2;" horiz-adv-x="1090" 
d="M90 715q21 120 139 217t305 168q139 52 182.5 75t43.5 52q0 45 -52 70t-151 25q-125 0 -182.5 -49.5t-82.5 -162.5l-195 94q29 148 153.5 241.5t306.5 93.5q79 0 153.5 -20.5t135 -58t97.5 -98.5t37 -135q0 -54 -22 -100t-53.5 -78t-85 -62.5t-98.5 -49.5t-112 -44
q-109 -41 -182 -87h573v-217h-910v126z" />
    <glyph glyph-name="uni00B3" unicode="&#xb3;" horiz-adv-x="1141" 
d="M578 576q-215 0 -339.5 96t-148.5 247l206 89q10 -60 23 -95t42.5 -64.5t82 -41.5t134.5 -12q253 0 253 106q0 105 -253 105h-108v166l172 147h-510v218h919v-163l-226 -188q104 -40 165 -114t61 -171q0 -149 -134.5 -237t-338.5 -88z" />
    <glyph glyph-name="acute" unicode="&#xb4;" horiz-adv-x="1589" 
d="M536 1095l497 391h162l48 -138l-347 -253h-360z" />
    <glyph glyph-name="paragraph" unicode="&#xb6;" horiz-adv-x="1309" 
d="M480 757q-72 11 -135 40q-108 47 -169.5 137.5t-61.5 207.5q0 122 63 210q59 87 162.5 133t234.5 46h537v-1729h-224v1505h-182v-1505h-225v955z" />
    <glyph glyph-name="periodcentered" unicode="&#xb7;" horiz-adv-x="660" 
d="M332 427q-60 0 -98.5 40.5t-38.5 95.5q0 56 38.5 96.5t98.5 40.5t98 -40.5t38 -96.5q0 -55 -38 -95.5t-98 -40.5z" />
    <glyph glyph-name="cedilla" unicode="&#xb8;" horiz-adv-x="1434" 
d="M560 -98q238 0 238 -78q0 -29 -14.5 -39t-58.5 -10q-52 0 -106 24.5t-74 71.5l-103 -139q111 -137 257 -137q110 0 186.5 66t76.5 173q0 72 -35 126.5t-95 83.5l37 138h-228l-80 -278z" />
    <glyph glyph-name="uni00B9" unicode="&#xb9;" horiz-adv-x="664" 
d="M352 580v663l-262 -135v245l340 182h144v-955h-222z" />
    <glyph glyph-name="ordmasculine" unicode="&#xba;" horiz-adv-x="935" 
d="M468 767q-190 0 -304 106.5t-114 280.5t114 280.5t304 106.5q189 0 303 -106.5t114 -280.5q0 -173 -114 -280t-303 -107zM269 1154q0 -96 44 -133.5t155 -37.5q110 0 154 37.5t44 133.5q0 95 -44 132.5t-154 37.5q-111 0 -155 -37.5t-44 -132.5z" />
    <glyph glyph-name="guillemotright" unicode="&#xbb;" horiz-adv-x="1133" 
d="M736 121h-282l340 431l-340 434h282l345 -434zM32 121l340 431l-340 434h282l345 -434l-345 -431h-282z" />
    <glyph glyph-name="questiondown" unicode="&#xbf;" horiz-adv-x="1502" 
d="M719 -330q-117 0 -225.5 28.5t-194.5 81.5t-137.5 136t-51.5 184q0 74 27 137t75 109.5t115 82t145 57t167 32.5v326h226v-538q-251 8 -389.5 -46t-138.5 -160q0 -99 103 -153t279 -54q399 0 489 321l202 -98q-54 -197 -242 -321.5t-449 -124.5zM612 987q0 56 39 96.5
t98 40.5q60 0 98.5 -41t38.5 -96q0 -56 -38.5 -96.5t-98.5 -40.5q-59 0 -98 40.5t-39 96.5z" />
    <glyph glyph-name="Agrave" unicode="&#xc0;" horiz-adv-x="1866" 
d="M56 -15l803 1409h148l803 -1409h-256l-212 370h-817l-213 -370h-256zM393 1975h370l425 -391h-331zM652 578h562l-280 491z" />
    <glyph glyph-name="Aacute" unicode="&#xc1;" horiz-adv-x="1866" 
d="M56 -15l803 1409h148l803 -1409h-256l-212 370h-817l-213 -370h-256zM652 578h562l-280 491zM687 1584l425 391h371l-465 -391h-331z" />
    <glyph glyph-name="Acircumflex" unicode="&#xc2;" horiz-adv-x="1866" 
d="M56 -15l803 1409h148l803 -1409h-256l-212 370h-817l-213 -370h-256zM437 1584l433 391h132l432 -391h-329l-169 141l-170 -141h-329zM652 578h562l-280 491z" />
    <glyph glyph-name="Atilde" unicode="&#xc3;" horiz-adv-x="1866" 
d="M56 -15l803 1409h148l803 -1409h-256l-212 370h-817l-213 -370h-256zM597 1587q-25 145 38 246t185 101q43 0 85.5 -19t59 -32.5t45.5 -40.5q34 -33 40 -33q7 0 7 7q1 11 -13 111h223q36 -133 -29 -237.5t-188 -104.5q-43 0 -84.5 18.5t-60 33t-46.5 40.5q-34 33 -39 33
q-4 0 -4 -15.5t2 -107.5h-221zM652 578h562l-280 491z" />
    <glyph glyph-name="Adieresis" unicode="&#xc4;" horiz-adv-x="1866" 
d="M56 -15l803 1409h148l803 -1409h-256l-212 370h-817l-213 -370h-256zM638 1725q0 60 43 102t99 42q61 0 102 -42t41 -102q0 -55 -40.5 -98t-102.5 -43q-58 0 -100 42.5t-42 98.5zM652 578h562l-280 491zM939 1725q0 60 42.5 102t99.5 42q60 0 100.5 -42.5t40.5 -101.5
q0 -54 -40 -97.5t-101 -43.5q-58 0 -100 43t-42 98z" />
    <glyph glyph-name="Aring" unicode="&#xc5;" horiz-adv-x="1866" 
d="M56 -15l803 1409h148l803 -1409h-256l-212 370h-817l-213 -370h-256zM652 578h562l-280 491zM676 1842q0 108 77 187t187 79q112 0 189.5 -79t77.5 -187q0 -107 -78.5 -182.5t-188.5 -75.5t-187 76t-77 182zM902 1842q0 -26 5 -30t33 -4q30 0 35 4t5 30q0 28 -6.5 34.5
t-33.5 6.5q-25 0 -31.5 -7t-6.5 -34z" />
    <glyph glyph-name="AE" unicode="&#xc6;" horiz-adv-x="2280" 
d="M56 -15l803 1409h1264v-224h-1062v-359h922v-222h-922v-382h1079v-222h-1304v370h-311l-213 -370h-256zM652 578l184 -2v325z" />
    <glyph glyph-name="Ccedilla" unicode="&#xc7;" horiz-adv-x="1799" 
d="M833 -42l-26 -90l-1 -2q238 0 238 -78q0 -29 -14.5 -39t-58.5 -10q-52 0 -106 24.5t-74 71.5l-103 -139q111 -137 257 -137q110 0 186.5 66t76.5 173q0 101 -67 166h12q194 33 332.5 128t212.5 244l-184 132q-75 -151 -203.5 -222.5t-342.5 -72.5q-287 0 -437.5 130
t-150.5 387q0 255 150.5 384.5t437.5 129.5q214 0 342.5 -70t203.5 -220l185 130q-94 183 -280.5 284t-450.5 101q-187 0 -340.5 -53.5t-257 -150.5t-160 -234t-56.5 -301q0 -302 178.5 -498t494.5 -234h6z" />
    <glyph glyph-name="Egrave" unicode="&#xc8;" horiz-adv-x="1713" 
d="M268 -15v1409h1287v-224h-1061v-359h922v-222h-922v-382h1079v-222h-1305zM450 1975h370l426 -391h-332z" />
    <glyph glyph-name="Eacute" unicode="&#xc9;" horiz-adv-x="1713" 
d="M268 -15v1409h1287v-224h-1061v-359h922v-222h-922v-382h1079v-222h-1305zM588 1584l427 391h370l-464 -391h-333z" />
    <glyph glyph-name="Ecircumflex" unicode="&#xca;" horiz-adv-x="1713" 
d="M268 -15v1409h1287v-224h-1061v-359h922v-222h-922v-382h1079v-222h-1305zM424 1584l430 391h133l433 -391h-329l-169 141l-170 -141h-328z" />
    <glyph glyph-name="Edieresis" unicode="&#xcb;" horiz-adv-x="1713" 
d="M268 -15v1409h1287v-224h-1061v-359h922v-222h-922v-382h1079v-222h-1305zM601 1725q0 60 43 102t99 42q61 0 102 -42t41 -102q0 -54 -41 -97.5t-102 -43.5q-58 0 -100 42.5t-42 98.5zM901 1725q0 60 42.5 102t98.5 42q61 0 101.5 -42t40.5 -102q0 -54 -39.5 -97.5
t-102.5 -43.5q-57 0 -99 43t-42 98z" />
    <glyph glyph-name="Igrave" unicode="&#xcc;" horiz-adv-x="991" 
d="M397 -15v1409h226v-1409h-226zM-5 1975h370l426 -391h-332z" />
    <glyph glyph-name="Iacute" unicode="&#xcd;" horiz-adv-x="1036" 
d="M415 -15v1409h225v-1409h-225zM259 1584l426 391h371l-465 -391h-332z" />
    <glyph glyph-name="Icircumflex" unicode="&#xce;" horiz-adv-x="986" 
d="M-6 1584l433 391h134l431 -391h-330l-169 141l-168 -141h-331zM384 -15v1409h226v-1409h-226z" />
    <glyph glyph-name="Idieresis" unicode="&#xcf;" horiz-adv-x="683" 
d="M239 -15v1409h226v-1409h-226zM50 1725q0 60 42.5 102t98.5 42q61 0 102 -42t41 -102q0 -55 -40.5 -98t-102.5 -43q-57 0 -99 43t-42 98zM350 1725q0 60 43 102t99 42q60 0 100.5 -42.5t40.5 -101.5q0 -54 -39.5 -97.5t-101.5 -43.5q-58 0 -100 42.5t-42 98.5z" />
    <glyph glyph-name="Ntilde" unicode="&#xd1;" horiz-adv-x="1946" 
d="M268 -15v1409h177l1008 -1029v1029h225v-1409h-167l-1017 1037v-1037h-226zM557 1587q-25 145 38 246t184 101q33 0 63 -8.5t56.5 -26.5t38.5 -28t32 -29q35 -33 41 -33q7 0 7 7q1 11 -13 111h222q21 -91 2.5 -167t-78 -125.5t-140.5 -49.5q-43 0 -84.5 18.5t-60 33
t-46.5 40.5q-34 33 -40 33q-4 0 -4.5 -15.5t2.5 -107.5h-220z" />
    <glyph glyph-name="Ograve" unicode="&#xd2;" horiz-adv-x="1924" 
d="M968 -50q-188 0 -341 53.5t-256.5 150.5t-160 234t-56.5 302q0 200 82.5 359.5t238.5 255.5q198 124 493 124t492 -124q156 -97 239 -256t83 -359q0 -336 -218.5 -538t-595.5 -202zM380 690q0 -259 152.5 -387t435.5 -130q284 2 435.5 130t151.5 387q0 323 -263 449
q-130 65 -324 65q-193 0 -324 -65q-264 -127 -264 -449zM443 1975h372l425 -391h-332z" />
    <glyph glyph-name="Oacute" unicode="&#xd3;" horiz-adv-x="1924" 
d="M968 -50q-188 0 -341 53.5t-256.5 150.5t-160 234t-56.5 302q0 200 82.5 359.5t238.5 255.5q198 124 493 124t492 -124q156 -97 239 -256t83 -359q0 -336 -218.5 -538t-595.5 -202zM380 690q0 -259 152.5 -387t435.5 -130q284 2 435.5 130t151.5 387q0 323 -263 449
q-130 65 -324 65q-193 0 -324 -65q-264 -127 -264 -449zM630 1584l426 391h371l-466 -391h-331z" />
    <glyph glyph-name="Ocircumflex" unicode="&#xd4;" horiz-adv-x="1924" 
d="M968 -50q-188 0 -341 53.5t-256.5 150.5t-160 234t-56.5 302q0 200 82.5 359.5t238.5 255.5q198 124 493 124t492 -124q156 -97 239 -256t83 -359q0 -336 -218.5 -538t-595.5 -202zM380 690q0 -259 152.5 -387t435.5 -130q284 2 435.5 130t151.5 387q0 323 -263 449
q-130 65 -324 65q-193 0 -324 -65q-264 -127 -264 -449zM463 1584l433 391h134l431 -391h-329l-170 141l-169 -141h-330z" />
    <glyph glyph-name="Otilde" unicode="&#xd5;" horiz-adv-x="1924" 
d="M968 -50q-188 0 -341 53.5t-256.5 150.5t-160 234t-56.5 302q0 200 82.5 359.5t238.5 255.5q198 124 493 124t492 -124q156 -97 239 -256t83 -359q0 -336 -218.5 -538t-595.5 -202zM380 690q0 -259 152.5 -387t435.5 -130q284 2 435.5 130t151.5 387q0 323 -263 449
q-130 65 -324 65q-193 0 -324 -65q-264 -127 -264 -449zM643 1587q-25 145 38 246t185 101q42 0 83.5 -18.5t60.5 -33.5t45 -40q35 -33 41 -33t6 6q1 9 -13 112h223q36 -133 -28.5 -237.5t-187.5 -104.5q-43 0 -84.5 18.5t-60 33t-46.5 40.5q-34 33 -39 33t-5.5 -15.5
t2.5 -107.5h-220z" />
    <glyph glyph-name="Odieresis" unicode="&#xd6;" horiz-adv-x="1924" 
d="M968 -50q-188 0 -341 53.5t-256.5 150.5t-160 234t-56.5 302q0 200 82.5 359.5t238.5 255.5q198 124 493 124t492 -124q156 -97 239 -256t83 -359q0 -336 -218.5 -538t-595.5 -202zM380 690q0 -259 152.5 -387t435.5 -130q284 2 435.5 130t151.5 387q0 323 -263 449
q-130 65 -324 65q-193 0 -324 -65q-264 -127 -264 -449zM659 1725q0 60 43.5 102t99.5 42q60 0 100.5 -42.5t40.5 -101.5q0 -54 -39.5 -97.5t-101.5 -43.5q-58 0 -100.5 42.5t-42.5 98.5zM959 1725q0 60 42.5 102t99.5 42q60 0 101 -42.5t41 -101.5q0 -54 -40 -97.5
t-102 -43.5q-58 0 -100 43t-42 98z" />
    <glyph glyph-name="multiply" unicode="&#xd7;" horiz-adv-x="1229" 
d="M362 307l-159 162l250 252l-250 250l159 161l252 -254l253 254l158 -161l-251 -250l251 -252l-158 -162l-253 253z" />
    <glyph glyph-name="Oslash" unicode="&#xd8;" horiz-adv-x="2110" 
d="M1108 -50q-323 0 -533 151l-121 -116h-316l283 272q-127 180 -127 433q0 200 82.5 359.5t238.5 255.5q198 124 493 124q249 0 431 -91l121 116h312l-251 -244q98 -97 149.5 -230.5t51.5 -289.5q0 -165 -56.5 -302t-160 -234t-256.5 -150.5t-341 -53.5zM520 690
q0 -165 65 -274l778 752q-111 36 -255 36q-193 0 -324 -65q-264 -127 -264 -449zM741 261q139 -85 367 -88q284 2 435.5 130t151.5 387q0 228 -137 362zM1418 1147l13 -7l27 58l-6 3z" />
    <glyph glyph-name="Ugrave" unicode="&#xd9;" horiz-adv-x="1886" 
d="M944 -50q-135 0 -249.5 35.5t-198 99.5t-142 152t-87.5 194t-29 224v739h225v-739q0 -234 121.5 -358t359.5 -124q237 0 358 124t121 358v739h225v-739q0 -148 -46.5 -276t-133.5 -224t-221.5 -150.5t-302.5 -54.5zM487 1975h370l427 -391h-332z" />
    <glyph glyph-name="Uacute" unicode="&#xda;" horiz-adv-x="1886" 
d="M944 -50q-135 0 -249.5 35.5t-198 99.5t-142 152t-87.5 194t-29 224v739h225v-739q0 -234 121.5 -358t359.5 -124q237 0 358 124t121 358v739h225v-739q0 -148 -46.5 -276t-133.5 -224t-221.5 -150.5t-302.5 -54.5zM588 1584l427 391h370l-465 -391h-332z" />
    <glyph glyph-name="Ucircumflex" unicode="&#xdb;" horiz-adv-x="1886" 
d="M944 -50q-135 0 -249.5 35.5t-198 99.5t-142 152t-87.5 194t-29 224v739h225v-739q0 -234 121.5 -358t359.5 -124q237 0 358 124t121 358v739h225v-739q0 -148 -46.5 -276t-133.5 -224t-221.5 -150.5t-302.5 -54.5zM443 1584l434 391h133l431 -391h-329l-169 141
l-170 -141h-330z" />
    <glyph glyph-name="Udieresis" unicode="&#xdc;" horiz-adv-x="1886" 
d="M944 -50q-135 0 -249.5 35.5t-198 99.5t-142 152t-87.5 194t-29 224v739h225v-739q0 -234 121.5 -358t359.5 -124q237 0 358 124t121 358v739h225v-739q0 -148 -46.5 -276t-133.5 -224t-221.5 -150.5t-302.5 -54.5zM642 1725q0 60 42.5 102t99.5 42q61 0 101 -42t40 -102
q0 -54 -39.5 -97.5t-101.5 -43.5q-58 0 -100 43t-42 98zM942 1725q0 60 42.5 102t99.5 42q60 0 100.5 -42t40.5 -102q0 -54 -40.5 -97.5t-100.5 -43.5q-58 0 -100 42.5t-42 98.5z" />
    <glyph glyph-name="Yacute" unicode="&#xdd;" horiz-adv-x="1801" 
d="M789 -15v433l-729 976h283l559 -750l559 750h280l-727 -976v-433h-225zM627 1584l427 391h370l-464 -391h-333z" />
    <glyph glyph-name="germandbls" unicode="&#xdf;" horiz-adv-x="1322" 
d="M268 -364v1827h902v-157l-321 -385q147 -49 234 -165t87 -272q0 -223 -182.5 -350.5t-493.5 -112.5v-385h-226zM494 247q228 -23 344.5 42t116.5 195q0 245 -307 245h-105v162l287 350h-336v-994z" />
    <glyph glyph-name="agrave" unicode="&#xe0;" horiz-adv-x="1524" 
d="M766 -50q-300 0 -475 164t-175 435q0 272 175 436t475 164q202 0 347 -77v77h225v-1164h-225v40q-147 -75 -347 -75zM333 1602h369l424 -393h-330zM342 549q0 -193 104.5 -284.5t319.5 -91.5q246 0 347 132v490q-102 132 -347 132q-215 0 -319.5 -92t-104.5 -286z" />
    <glyph glyph-name="aacute" unicode="&#xe1;" horiz-adv-x="1524" 
d="M766 -50q-300 0 -475 164t-175 435q0 272 175 436t475 164q202 0 347 -77v77h225v-1164h-225v40q-147 -75 -347 -75zM342 549q0 -193 104.5 -284.5t319.5 -91.5q246 0 347 132v490q-102 132 -347 132q-215 0 -319.5 -92t-104.5 -286zM469 1204l426 391h371l-465 -391
h-332z" />
    <glyph glyph-name="acircumflex" unicode="&#xe2;" horiz-adv-x="1524" 
d="M766 -50q-300 0 -475 164t-175 435q0 272 175 436t475 164q202 0 347 -77v77h225v-1164h-225v40q-147 -75 -347 -75zM243 1204l434 391h133l431 -391h-329l-169 142l-169 -142h-331zM342 549q0 -193 104.5 -284.5t319.5 -91.5q246 0 347 132v490q-102 132 -347 132
q-215 0 -319.5 -92t-104.5 -286z" />
    <glyph glyph-name="atilde" unicode="&#xe3;" horiz-adv-x="1524" 
d="M766 -50q-300 0 -475 164t-175 435q0 272 175 436t475 164q202 0 347 -77v77h225v-1164h-225v40q-147 -75 -347 -75zM342 549q0 -193 104.5 -284.5t319.5 -91.5q246 0 347 132v490q-102 132 -347 132q-215 0 -319.5 -92t-104.5 -286zM440 1206q-25 144 38 246t186 102
q43 0 84.5 -18.5t59.5 -33.5t45 -40q35 -33 40 -33q7 0 7 9t-6 62q-1 9 -1.5 14t-1.5 14.5t-2 17.5h221q36 -133 -29 -237.5t-188 -104.5q-43 0 -84.5 18.5t-59.5 32.5t-46 40q-36 34 -39 34q-4 0 -5.5 -3t-1.5 -24t1 -63q1 -21 1 -33h-219z" />
    <glyph glyph-name="adieresis" unicode="&#xe4;" horiz-adv-x="1524" 
d="M766 -50q-300 0 -475 164t-175 435q0 272 175 436t475 164q202 0 347 -77v77h225v-1164h-225v40q-147 -75 -347 -75zM342 549q0 -193 104.5 -284.5t319.5 -91.5q246 0 347 132v490q-102 132 -347 132q-215 0 -319.5 -92t-104.5 -286zM462 1351q0 60 43 102t99 42
q61 0 101.5 -43t40.5 -101q0 -55 -39.5 -99t-102.5 -44q-57 0 -99.5 44t-42.5 99zM761 1351q0 60 42.5 102t99.5 42q61 0 101.5 -43.5t40.5 -100.5q0 -55 -39.5 -99t-102.5 -44q-57 0 -99.5 44t-42.5 99z" />
    <glyph glyph-name="aring" unicode="&#xe5;" horiz-adv-x="1524" 
d="M766 -50q-300 0 -475 164t-175 435q0 272 175 436t475 164q202 0 347 -77v77h225v-1164h-225v40q-147 -75 -347 -75zM342 549q0 -193 104.5 -284.5t319.5 -91.5q246 0 347 132v490q-102 132 -347 132q-215 0 -319.5 -92t-104.5 -286zM501 1473q0 107 76.5 186t187.5 79
q112 0 189 -79t77 -186q0 -106 -78 -182.5t-188 -76.5t-187 76.5t-77 182.5zM727 1473q0 -26 4.5 -30.5t33.5 -4.5t34.5 4.5t5.5 30.5q0 28 -7 35t-33 7q-25 0 -31.5 -7t-6.5 -35z" />
    <glyph glyph-name="ae" unicode="&#xe6;" horiz-adv-x="2518" 
d="M766 -50q-300 0 -475 164t-175 435q0 272 175 436t475 164q202 0 347 -77v77h225v-126q169 126 429 126q301 0 476 -164t175 -436v-128h-1060q34 -127 134 -187.5t275 -60.5q180 0 285.5 48t201.5 172l143 -183q-118 -138 -266.5 -199t-363.5 -61h-2q-255 0 -427 126v-91
h-225v40q-147 -75 -347 -75zM342 549q0 -193 104.5 -284.5t319.5 -91.5q246 0 347 132v490q-102 132 -347 132q-215 0 -319.5 -92t-104.5 -286zM1350 645h834q-25 144 -127.5 213t-289.5 69q-186 0 -288.5 -69t-128.5 -213z" />
    <glyph glyph-name="ccedilla" unicode="&#xe7;" horiz-adv-x="1503" 
d="M758 -425q-146 0 -257 137l103 139q20 -47 74 -71.5t106 -24.5q44 0 58.5 10t14.5 39q0 78 -238 78l1 2l22 78q-234 40 -367 196.5t-133 390.5q0 272 175 436t475 164q214 0 369 -88.5t224 -247.5l-200 -101q-44 111 -138.5 163t-254.5 52q-216 0 -320.5 -92t-104.5 -286
q0 -193 104.5 -284.5t320.5 -91.5q163 0 259 54.5t140 170.5l197 -107q-52 -127 -160.5 -210t-260.5 -114q54 -64 54 -153q0 -107 -76.5 -173t-186.5 -66z" />
    <glyph glyph-name="egrave" unicode="&#xe8;" horiz-adv-x="1541" 
d="M790 -50q-298 0 -473 164t-175 435q0 272 175 436t475 164q299 0 474 -164t175 -436v-128h-1059q34 -127 134 -187.5t276 -60.5q180 0 285.5 48t201.5 173l141 -184q-118 -138 -266 -199t-362 -61h-2zM343 1595h372l425 -391h-331zM375 645h833q-25 144 -127.5 213
t-288.5 69q-187 0 -289.5 -69t-127.5 -213z" />
    <glyph glyph-name="eacute" unicode="&#xe9;" horiz-adv-x="1541" 
d="M790 -50q-298 0 -473 164t-175 435q0 272 175 436t475 164q299 0 474 -164t175 -436v-128h-1059q34 -127 134 -187.5t276 -60.5q180 0 285.5 48t201.5 173l141 -184q-118 -138 -266 -199t-362 -61h-2zM375 645h833q-25 144 -127.5 213t-288.5 69q-187 0 -289.5 -69
t-127.5 -213zM525 1204l427 391h371l-466 -391h-332z" />
    <glyph glyph-name="ecircumflex" unicode="&#xea;" horiz-adv-x="1541" 
d="M790 -50q-298 0 -473 164t-175 435q0 272 175 436t475 164q299 0 474 -164t175 -436v-128h-1059q34 -127 134 -187.5t276 -60.5q180 0 285.5 48t201.5 173l141 -184q-118 -138 -266 -199t-362 -61h-2zM298 1204l431 391h134l433 -391h-330l-169 142l-170 -142h-329z
M375 645h833q-25 144 -127.5 213t-288.5 69q-187 0 -289.5 -69t-127.5 -213z" />
    <glyph glyph-name="edieresis" unicode="&#xeb;" horiz-adv-x="1541" 
d="M790 -50q-298 0 -473 164t-175 435q0 272 175 436t475 164q299 0 474 -164t175 -436v-128h-1059q34 -127 134 -187.5t276 -60.5q180 0 285.5 48t201.5 173l141 -184q-118 -138 -266 -199t-362 -61h-2zM375 645h833q-25 144 -127.5 213t-288.5 69q-187 0 -289.5 -69
t-127.5 -213zM498 1346q0 60 42.5 102t99.5 42q60 0 101 -42.5t41 -101.5q0 -53 -40 -97.5t-102 -44.5q-57 0 -99.5 44t-42.5 98zM798 1346q0 60 42.5 102t99.5 42q60 0 101 -42.5t41 -101.5q0 -53 -40.5 -97.5t-101.5 -44.5q-57 0 -99.5 44t-42.5 98z" />
    <glyph glyph-name="igrave" unicode="&#xec;" horiz-adv-x="926" 
d="M394 1204l-464 391h369l427 -391h-332zM349 -15v1130h224v-1130h-224z" />
    <glyph glyph-name="iacute" unicode="&#xed;" horiz-adv-x="913" 
d="M206 1204l425 391h372l-465 -391h-332zM364 -15v1130h224v-1130h-224z" />
    <glyph glyph-name="icircumflex" unicode="&#xee;" horiz-adv-x="923" 
d="M-37 1182l431 392h135l431 -392h-330l-168 141l-170 -141h-329zM356 -15v1130h224v-1130h-224z" />
    <glyph glyph-name="idieresis" unicode="&#xef;" horiz-adv-x="614" 
d="M198 -15v1130h225v-1130h-225zM15 1346q0 60 42.5 102t98.5 42q60 0 101 -42.5t41 -101.5q0 -53 -40 -97.5t-102 -44.5q-57 0 -99 44t-42 98zM314 1346q0 60 43 102t99 42q61 0 102 -42.5t41 -101.5q0 -53 -40.5 -97.5t-102.5 -44.5q-57 0 -99.5 44t-42.5 98z" />
    <glyph glyph-name="ntilde" unicode="&#xf1;" 
d="M232 -15v1130h224v-82q160 116 391 116q142 0 251.5 -42.5t176.5 -118t100.5 -173.5t33.5 -216v-614h-225v614q0 175 -74.5 251.5t-262.5 76.5q-141 0 -236 -52.5t-155 -171.5v-718h-224zM504 1203q-25 142 38.5 244t185.5 102q95 0 190 -92q36 -33 39 -33q7 0 7 7
q1 9 -11 111h222q36 -133 -29 -237.5t-189 -104.5q-42 0 -83.5 18t-61 33.5t-45.5 40.5q-33 32 -39 32t-6 -15t2 -106h-220z" />
    <glyph glyph-name="ograve" unicode="&#xf2;" horiz-adv-x="1583" 
d="M792 -50q-300 0 -475 164t-175 435q0 272 175 436t475 164q299 0 474 -164t175 -436q0 -271 -175 -435t-474 -164zM280 1595h370l427 -391h-332zM367 549q0 -193 104.5 -284.5t320.5 -91.5q215 0 319.5 91.5t104.5 284.5q0 194 -104.5 286t-319.5 92q-216 0 -320.5 -92
t-104.5 -286z" />
    <glyph glyph-name="oacute" unicode="&#xf3;" horiz-adv-x="1583" 
d="M792 -50q-300 0 -475 164t-175 435q0 272 175 436t475 164q299 0 474 -164t175 -436q0 -271 -175 -435t-474 -164zM367 549q0 -193 104.5 -284.5t320.5 -91.5q215 0 319.5 91.5t104.5 284.5q0 194 -104.5 286t-319.5 92q-216 0 -320.5 -92t-104.5 -286zM510 1204l425 391
h372l-466 -391h-331z" />
    <glyph glyph-name="ocircumflex" unicode="&#xf4;" horiz-adv-x="1583" 
d="M792 -50q-300 0 -475 164t-175 435q0 272 175 436t475 164q299 0 474 -164t175 -436q0 -271 -175 -435t-474 -164zM303 1204l431 391h134l433 -391h-330l-169 142l-170 -142h-329zM367 549q0 -193 104.5 -284.5t320.5 -91.5q215 0 319.5 91.5t104.5 284.5
q0 194 -104.5 286t-319.5 92q-216 0 -320.5 -92t-104.5 -286z" />
    <glyph glyph-name="otilde" unicode="&#xf5;" horiz-adv-x="1583" 
d="M792 -50q-300 0 -475 164t-175 435q0 272 175 436t475 164q299 0 474 -164t175 -436q0 -271 -175 -435t-474 -164zM367 549q0 -193 104.5 -284.5t320.5 -91.5q215 0 319.5 91.5t104.5 284.5q0 194 -104.5 286t-319.5 92q-216 0 -320.5 -92t-104.5 -286zM445 1201
q-28 142 36 244t186 102q95 0 190 -92q34 -32 39 -32q11 0 1 74q-1 8 -2 13t-2 13.5t-2 16.5h223q36 -133 -29 -237.5t-189 -104.5q-42 0 -83.5 18.5t-60 33.5t-45.5 40q-35 32 -40 32q-6 0 -6.5 -15t2.5 -106h-218z" />
    <glyph glyph-name="odieresis" unicode="&#xf6;" horiz-adv-x="1583" 
d="M792 -50q-300 0 -475 164t-175 435q0 272 175 436t475 164q299 0 474 -164t175 -436q0 -271 -175 -435t-474 -164zM367 549q0 -193 104.5 -284.5t320.5 -91.5q215 0 319.5 91.5t104.5 284.5q0 194 -104.5 286t-319.5 92q-216 0 -320.5 -92t-104.5 -286zM498 1370
q0 60 42 101.5t99 41.5q61 0 101.5 -42t40.5 -101q0 -54 -40 -98t-102 -44q-58 0 -99.5 43t-41.5 99zM797 1370q0 59 43 101t99 42q60 0 101 -42t41 -101q0 -54 -40 -98t-102 -44q-58 0 -100 43t-42 99z" />
    <glyph glyph-name="divide" unicode="&#xf7;" horiz-adv-x="1354" 
d="M207 606v225h940v-225h-940zM542 391q0 56 38 96.5t98 40.5t98 -40.5t38 -96.5q0 -55 -38 -95.5t-98 -40.5t-98 40.5t-38 95.5zM542 1049q0 55 38 95.5t98 40.5t98 -40.5t38 -95.5t-38 -95.5t-98 -40.5t-98 40.5t-38 95.5z" />
    <glyph glyph-name="oslash" unicode="&#xf8;" horiz-adv-x="1916" 
d="M942 -50q-238 0 -398 103l-78 -68h-324l245 221q-95 143 -95 343q0 272 175 436t475 164q228 0 390 -99l118 105h324l-284 -255q101 -148 101 -351q0 -271 -175 -435t-474 -164zM517 549q0 -116 40 -192l598 534q-89 36 -213 36q-216 0 -320.5 -92t-104.5 -286zM720 211
q90 -38 222 -38q214 0 318.5 91.5t104.5 284.5q0 122 -44 200z" />
    <glyph glyph-name="ugrave" unicode="&#xf9;" 
d="M773 -50q-142 0 -251.5 42.5t-176 118.5t-100 174t-33.5 216v614h224v-614q0 -176 74 -252t263 -76q142 0 237 52t154 172v718h225v-1130h-225v80q-163 -115 -391 -115zM315 1595h373l424 -391h-331z" />
    <glyph glyph-name="uacute" unicode="&#xfa;" 
d="M773 -50q-142 0 -251.5 42.5t-176 118.5t-100 174t-33.5 216v614h224v-614q0 -176 74 -252t263 -76q142 0 237 52t154 172v718h225v-1130h-225v80q-163 -115 -391 -115zM507 1204l426 391h370l-465 -391h-331z" />
    <glyph glyph-name="ucircumflex" unicode="&#xfb;" 
d="M773 -50q-142 0 -251.5 42.5t-176 118.5t-100 174t-33.5 216v614h224v-614q0 -176 74 -252t263 -76q142 0 237 52t154 172v718h225v-1130h-225v80q-163 -115 -391 -115zM287 1204l433 391h133l432 -391h-330l-169 142l-168 -142h-331z" />
    <glyph glyph-name="udieresis" unicode="&#xfc;" 
d="M773 -50q-142 0 -251.5 42.5t-176 118.5t-100 174t-33.5 216v614h224v-614q0 -176 74 -252t263 -76q142 0 237 52t154 172v718h225v-1130h-225v80q-163 -115 -391 -115zM489 1344q0 59 43 101.5t98 42.5q60 0 101 -42.5t41 -101.5q0 -54 -39.5 -98t-102.5 -44
q-57 0 -99 43t-42 99zM789 1344q0 60 42.5 102t98.5 42q60 0 101 -42.5t41 -101.5q0 -54 -39.5 -98t-102.5 -44q-57 0 -99 43.5t-42 98.5z" />
    <glyph glyph-name="yacute" unicode="&#xfd;" horiz-adv-x="1547" 
d="M392 -363l245 446l-569 1032h257l441 -798l441 798h256l-816 -1478h-255zM468 1204l425 391h372l-465 -391h-332z" />
    <glyph glyph-name="ydieresis" unicode="&#xff;" horiz-adv-x="1547" 
d="M392 -363l245 446l-569 1032h257l441 -798l441 798h256l-816 -1478h-255zM472 1349q0 60 42.5 102t99.5 42q61 0 101 -42.5t40 -101.5q0 -54 -40 -98.5t-101 -44.5q-58 0 -100 44t-42 99zM771 1349q0 60 43 102t99 42q60 0 101 -42.5t41 -101.5q0 -55 -39.5 -99
t-102.5 -44q-57 0 -99.5 44t-42.5 99z" />
    <glyph glyph-name="Cacute" unicode="&#x106;" horiz-adv-x="1799" 
d="M968 -50q-188 0 -341 53.5t-256.5 150.5t-160 234t-56.5 302q0 164 56.5 301t160 234t257 150.5t340.5 53.5q264 0 450.5 -101t280.5 -284l-185 -130q-75 150 -203.5 220t-342.5 70q-287 0 -437.5 -129.5t-150.5 -384.5q0 -257 150.5 -387t437.5 -130q214 1 342.5 72.5
t203.5 222.5l184 -132q-93 -183 -279.5 -284t-450.5 -102zM630 1584l426 391h371l-466 -391h-331z" />
    <glyph glyph-name="cacute" unicode="&#x107;" horiz-adv-x="1504" 
d="M514 1204l426 391h371l-465 -391h-332zM142 549q0 272 175 436t475 164q214 0 369 -88.5t224 -247.5l-200 -101q-44 111 -138.5 163t-254.5 52q-216 0 -320.5 -92t-104.5 -286q0 -193 104.5 -284.5t320.5 -91.5q163 0 259 54.5t140 170.5l197 -107q-67 -161 -223 -251
t-373 -90q-300 0 -475 164t-175 435z" />
    <glyph glyph-name="Ccaron" unicode="&#x10c;" horiz-adv-x="1799" 
d="M468 1975h330l169 -141l170 141h329l-433 -391h-132zM154 690q0 164 56.5 301t160 234t257 150.5t340.5 53.5q264 0 450.5 -101t280.5 -284l-185 -130q-75 150 -203.5 220t-342.5 70q-287 0 -437.5 -129.5t-150.5 -384.5q0 -257 150.5 -387t437.5 -130q214 1 342.5 72.5
t203.5 222.5l184 -132q-93 -183 -279.5 -284t-450.5 -102q-188 0 -341 53.5t-256.5 150.5t-160 234t-56.5 302z" />
    <glyph glyph-name="ccaron" unicode="&#x10d;" horiz-adv-x="1504" 
d="M289 1595h329l169 -142l169 142h329l-430 -391h-134zM142 549q0 272 175 436t475 164q214 0 369 -88.5t224 -247.5l-200 -101q-44 111 -138.5 163t-254.5 52q-216 0 -320.5 -92t-104.5 -286q0 -193 104.5 -284.5t320.5 -91.5q163 0 259 54.5t140 170.5l197 -107
q-67 -161 -223 -251t-373 -90q-300 0 -475 164t-175 435z" />
    <glyph glyph-name="Ecaron" unicode="&#x11a;" horiz-adv-x="1713" 
d="M268 -15v1409h1287v-224h-1061v-359h922v-222h-922v-382h1079v-222h-1305zM475 1975h329l170 -141l170 141h329l-433 -391h-132z" />
    <glyph glyph-name="ecaron" unicode="&#x11b;" horiz-adv-x="1541" 
d="M790 -50q-298 0 -473 164t-175 435q0 272 175 436t475 164q299 0 474 -164t175 -436v-128h-1059q34 -127 134 -187.5t276 -60.5q180 0 285.5 48t201.5 173l141 -184q-118 -138 -266 -199t-362 -61h-2zM288 1611h329l169 -141l170 141h328l-430 -391h-133zM375 645h833
q-25 144 -127.5 213t-288.5 69q-187 0 -289.5 -69t-127.5 -213z" />
    <glyph glyph-name="dotlessi" unicode="&#x131;" horiz-adv-x="636" 
d="M206 -15v1130h224v-1130h-224z" />
    <glyph glyph-name="Nacute" unicode="&#x143;" horiz-adv-x="1946" 
d="M268 -15v1409h177l1008 -1029v1029h225v-1409h-167l-1017 1037v-1037h-226zM638 1584l426 391h371l-465 -391h-332z" />
    <glyph glyph-name="nacute" unicode="&#x144;" 
d="M232 -15v1130h224v-82q160 116 391 116q142 0 251.5 -42.5t176.5 -118t100.5 -173.5t33.5 -216v-614h-225v614q0 175 -74.5 251.5t-262.5 76.5q-141 0 -236 -52.5t-155 -171.5v-718h-224zM570 1193l425 392h371l-464 -392h-332z" />
    <glyph glyph-name="Ncaron" unicode="&#x147;" horiz-adv-x="1946" 
d="M268 -15v1409h177l1008 -1029v1029h225v-1409h-167l-1017 1037v-1037h-226zM484 1975h330l169 -141l170 141h329l-433 -391h-132z" />
    <glyph glyph-name="ncaron" unicode="&#x148;" 
d="M232 -15v1130h224v-82q160 116 391 116q142 0 251.5 -42.5t176.5 -118t100.5 -173.5t33.5 -216v-614h-225v614q0 175 -74.5 251.5t-262.5 76.5q-141 0 -236 -52.5t-155 -171.5v-718h-224zM336 1595h330l169 -142l169 142h330l-431 -391h-134z" />
    <glyph glyph-name="OE" unicode="&#x152;" horiz-adv-x="3001" 
d="M968 -50q-188 0 -341 53.5t-256.5 150.5t-160 234t-56.5 302q0 200 82.5 359.5t238.5 255.5q198 124 493 124t492 -124q46 -30 97 -74v167h1287v-222h-1062v-359h923v-222h-923v-383h1079v-222h-1304v157q-220 -197 -589 -197zM380 690q0 -259 152.5 -387t435.5 -130
q284 2 435.5 130t151.5 387q0 323 -263 449q-130 65 -324 65q-193 0 -324 -65q-264 -127 -264 -449z" />
    <glyph glyph-name="oe" unicode="&#x153;" horiz-adv-x="2621" 
d="M792 -50q-300 0 -475 164t-175 435q0 272 175 436t475 164q179 0 317 -61t223 -174q83 113 221.5 174t318.5 61q299 0 474 -164t175 -436v-128h-1060q34 -127 134 -187.5t277 -60.5q179 0 284.5 48t200.5 173l143 -184q-119 -138 -267 -199t-361 -61h-2
q-179 0 -317.5 61.5t-221.5 174.5q-84 -113 -222 -174.5t-317 -61.5zM367 549q0 -193 104.5 -284.5t320.5 -91.5q215 0 319.5 91.5t104.5 284.5q0 194 -104.5 286t-319.5 92q-216 0 -320.5 -92t-104.5 -286zM1454 645h833q-25 144 -127 213t-288 69q-188 0 -290.5 -69
t-127.5 -213z" />
    <glyph glyph-name="Racute" unicode="&#x154;" horiz-adv-x="1938" 
d="M268 -15v1409h875q241 0 388 -125.5t147 -334.5q0 -166 -95.5 -282t-261.5 -157l451 -510h-299l-432 488h-547v-488h-226zM494 697h649q162 0 235 57.5t73 179.5q0 121 -73 178.5t-235 57.5h-649v-473zM556 1584l426 391h370l-464 -391h-332z" />
    <glyph glyph-name="racute" unicode="&#x155;" horiz-adv-x="1088" 
d="M232 -15v1130h224v-82q160 116 391 116q94 0 117 -24l20 -36v-173q-93 11 -137 11q-141 0 -236 -52.5t-155 -171.5v-718h-224zM277 1204l426 391h371l-465 -391h-332z" />
    <glyph glyph-name="Rcaron" unicode="&#x158;" horiz-adv-x="1938" 
d="M268 -15v1409h875q241 0 388 -125.5t147 -334.5q0 -166 -95.5 -282t-261.5 -157l451 -510h-299l-432 488h-547v-488h-226zM402 1975h331l168 -141l170 141h330l-433 -391h-133zM494 697h649q162 0 235 57.5t73 179.5q0 121 -73 178.5t-235 57.5h-649v-473z" />
    <glyph glyph-name="rcaron" unicode="&#x159;" horiz-adv-x="1244" 
d="M358 -15v1130h224v-82q161 116 391 116q94 0 117 -24l20 -36v-173q-92 11 -137 11q-141 0 -236 -52.5t-155 -171.5v-718h-224zM232 1595h329l170 -142l169 142h330l-433 -391h-133z" />
    <glyph glyph-name="Sacute" unicode="&#x15a;" horiz-adv-x="1730" 
d="M641 -37q-263 0 -408 145t-101 365h222q-33 -149 37.5 -220t266.5 -71h340q163 0 236 48.5t73 147.5q0 103 -73 151.5t-236 48.5h-340q-240 0 -388 114t-148 305t148 303t388 112h358q173 0 299.5 -65.5t182.5 -182.5t26 -262h-221q33 149 -37.5 220t-267.5 71h-340
q-164 0 -236.5 -48t-72.5 -148q0 -103 72.5 -151.5t236.5 -48.5h340q241 0 388 -113.5t147 -305.5q0 -189 -147.5 -302t-387.5 -113h-357zM582 1665l336 310h370l-464 -391h-210v47z" />
    <glyph glyph-name="sacute" unicode="&#x15b;" horiz-adv-x="1416" 
d="M548 -50q-227 0 -348.5 129.5t-74.5 323.5h229q-41 -127 3.5 -179.5t202.5 -52.5h270q126 0 176.5 31t50.5 104q0 72 -51 103.5t-176 31.5h-270q-199 0 -323.5 96.5t-124.5 258.5t124 258t324 96h282q228 0 349.5 -129t75.5 -324h-228q38 127 -6.5 179.5t-202.5 52.5
h-270q-125 0 -175 -30.5t-50 -102.5t50.5 -103.5t174.5 -31.5h270q201 0 325.5 -97t124.5 -258q0 -163 -124.5 -259.5t-325.5 -96.5h-282zM495 1276l334 309h373l-466 -391h-211v47z" />
    <glyph glyph-name="Scedilla" unicode="&#x15e;" horiz-adv-x="1730" 
d="M641 -37q-263 0 -408 145t-101 365h222q-33 -149 37.5 -220t266.5 -71h340q163 0 236 48.5t73 147.5q0 103 -73 151.5t-236 48.5h-340q-240 0 -388 114t-148 305t148 303t388 112h358q173 0 299.5 -65.5t182.5 -182.5t26 -262h-221q33 149 -37.5 220t-267.5 71h-340
q-164 0 -236.5 -48t-72.5 -148q0 -103 72.5 -151.5t236.5 -48.5h340q241 0 388 -113.5t147 -305.5q0 -189 -147.5 -302t-387.5 -113h-15q61 -64 61 -160q0 -107 -76.5 -173t-186.5 -66q-146 0 -257 137l103 139q20 -47 74 -71.5t106 -24.5q44 0 58.5 10t14.5 39
q0 78 -238 78l1 2l26 90h-28z" />
    <glyph glyph-name="scedilla" unicode="&#x15f;" horiz-adv-x="1416" 
d="M649 -441q-146 0 -257 137l103 139q20 -47 74 -71.5t106 -24.5q44 0 58.5 10t14.5 39q0 78 -238 78l1 2l24 82q-221 5 -338.5 133.5t-71.5 319.5h229q-41 -127 3.5 -179.5t202.5 -52.5h270q126 0 176.5 31t50.5 104q0 72 -51 103.5t-176 31.5h-270q-199 0 -323.5 96.5
t-124.5 258.5t124 258t324 96h282q228 0 349.5 -129t75.5 -324h-228q38 127 -6.5 179.5t-202.5 52.5h-270q-125 0 -175 -30.5t-50 -102.5t50.5 -103.5t174.5 -31.5h270q201 0 325.5 -97t124.5 -258q0 -156 -114.5 -251.5t-301.5 -103.5h-7q55 -63 55 -153q0 -107 -76.5 -173
t-186.5 -66z" />
    <glyph glyph-name="Scaron" unicode="&#x160;" horiz-adv-x="1730" 
d="M641 -37q-263 0 -408 145t-101 365h222q-33 -149 37.5 -220t266.5 -71h340q163 0 236 48.5t73 147.5q0 103 -73 151.5t-236 48.5h-340q-240 0 -388 114t-148 305t148 303t388 112h358q173 0 299.5 -65.5t182.5 -182.5t26 -262h-221q33 149 -37.5 220t-267.5 71h-340
q-164 0 -236.5 -48t-72.5 -148q0 -103 72.5 -151.5t236.5 -48.5h340q241 0 388 -113.5t147 -305.5q0 -189 -147.5 -302t-387.5 -113h-357zM419 1894l30 34v47h207l169 -141l170 141h329l-433 -391h-132z" />
    <glyph glyph-name="scaron" unicode="&#x161;" horiz-adv-x="1416" 
d="M548 -50q-227 0 -348.5 129.5t-74.5 323.5h229q-41 -127 3.5 -179.5t202.5 -52.5h270q126 0 176.5 31t50.5 104q0 72 -51 103.5t-176 31.5h-270q-199 0 -323.5 96.5t-124.5 258.5t124 258t324 96h282q228 0 349.5 -129t75.5 -324h-228q38 127 -6.5 179.5t-202.5 52.5
h-270q-125 0 -175 -30.5t-50 -102.5t50.5 -103.5t174.5 -31.5h270q201 0 325.5 -97t124.5 -258q0 -163 -124.5 -259.5t-325.5 -96.5h-282zM276 1515l31 34v46h207l170 -142l168 142h330l-433 -391h-133z" />
    <glyph glyph-name="Uring" unicode="&#x16e;" horiz-adv-x="1886" 
d="M944 -50q-135 0 -249.5 35.5t-198 99.5t-142 152t-87.5 194t-29 224v739h225v-739q0 -234 121.5 -358t359.5 -124q237 0 358 124t121 358v739h225v-739q0 -148 -46.5 -276t-133.5 -224t-221.5 -150.5t-302.5 -54.5zM659 1842q0 108 77 187t188 79q112 0 189 -79t77 -187
q0 -107 -78 -182.5t-188 -75.5q-111 0 -188 76t-77 182zM886 1842q0 -26 5 -30t33 -4q29 0 34 4t5 30q0 28 -6 34.5t-33 6.5q-25 0 -31.5 -7t-6.5 -34z" />
    <glyph glyph-name="uring" unicode="&#x16f;" 
d="M773 -50q-142 0 -251.5 42.5t-176 118.5t-100 174t-33.5 216v614h224v-614q0 -176 74 -252t263 -76q142 0 237 52t154 172v718h225v-1130h-225v80q-163 -115 -391 -115zM515 1473q0 108 76.5 186.5t187.5 78.5q112 0 189 -79t77 -186q0 -106 -78 -182.5t-188 -76.5
q-111 0 -187.5 76t-76.5 183zM741 1473q0 -26 4.5 -30.5t33.5 -4.5t34.5 4.5t5.5 30.5q0 28 -7 35t-33 7q-25 0 -31.5 -7t-6.5 -35z" />
    <glyph glyph-name="Wcircumflex" unicode="&#x174;" horiz-adv-x="2345" 
d="M612 -15l-526 1409h239l372 -998l391 998h169l389 -998l374 998h239l-527 -1409h-166l-393 1008l-396 -1008h-165zM678 1584l432 391h133l433 -391h-329l-171 141l-168 -141h-330z" />
    <glyph glyph-name="wcircumflex" unicode="&#x175;" horiz-adv-x="1975" 
d="M531 -15l-443 1130h240l286 -732l290 732h168l290 -731l285 731h240l-444 -1130h-163l-292 734l-295 -734h-162zM485 1204l432 391h133l432 -391h-330l-168 142l-169 -142h-330z" />
    <glyph glyph-name="Ycircumflex" unicode="&#x176;" horiz-adv-x="1801" 
d="M789 -15v433l-729 976h283l559 -750l559 750h280l-727 -976v-433h-225zM346 1584l430 391h134l433 -391h-329l-170 141l-169 -141h-329z" />
    <glyph glyph-name="ycircumflex" unicode="&#x177;" horiz-adv-x="1547" 
d="M392 -363l245 446l-569 1032h257l441 -798l441 798h256l-816 -1478h-255zM237 1204l434 391h133l431 -391h-329l-169 142l-170 -142h-330z" />
    <glyph glyph-name="Ydieresis" unicode="&#x178;" horiz-adv-x="1801" 
d="M789 -15v433l-729 976h283l559 -750l559 750h280l-727 -976v-433h-225zM609 1725q0 60 42.5 102t99.5 42q59 0 99.5 -42.5t40.5 -101.5q0 -54 -39.5 -97.5t-100.5 -43.5q-58 0 -100 43t-42 98zM907 1725q0 60 43 102t100 42q60 0 101 -42t41 -102q0 -54 -40.5 -97.5
t-101.5 -43.5q-58 0 -100.5 43t-42.5 98z" />
    <glyph glyph-name="Zacute" unicode="&#x179;" horiz-adv-x="1608" 
d="M88 -15v163l1022 1022h-991v224h1368v-165l-1022 -1022h1049v-222h-1426zM467 1584l427 391h371l-465 -391h-333z" />
    <glyph glyph-name="zacute" unicode="&#x17a;" horiz-adv-x="1336" 
d="M92 -16v160l747 747h-723v224h1099v-162l-747 -747h770v-222h-1146zM375 1204l426 391h372l-466 -391h-332z" />
    <glyph glyph-name="Zcaron" unicode="&#x17d;" horiz-adv-x="1608" 
d="M88 -15v163l1022 1022h-991v224h1368v-165l-1022 -1022h1049v-222h-1426zM283 1975h330l169 -141l169 141h330l-431 -391h-134z" />
    <glyph glyph-name="zcaron" unicode="&#x17e;" horiz-adv-x="1336" 
d="M92 -16v160l747 747h-723v224h1099v-162l-747 -747h770v-222h-1146zM184 1585h329l170 -141l169 141h330l-433 -392h-132z" />
    <glyph glyph-name="florin" unicode="&#x192;" horiz-adv-x="955" 
d="M115 -376q-101 0 -184.5 46t-110.5 135l157 159q4 -7 11 -20q35 -64 54.5 -79.5t74.5 -15.5q64 0 88 24t32 99l112 923h-186l35 225h180l12 101q18 140 113.5 227.5t239.5 87.5q46 0 90 -10t85.5 -31.5t72.5 -59.5t44 -89l-187 -153q-15 78 -32 98.5t-76 20.5
q-66 0 -89.5 -23.5t-33.5 -99.5l-10 -69h324l-35 -225h-317l-115 -955q-19 -140 -112 -228t-237 -88z" />
    <glyph glyph-name="circumflex" unicode="&#x2c6;" horiz-adv-x="1678" 
d="M-1163 1584l434 391h134l430 -391h-329l-169 141l-169 -141h-331z" />
    <glyph glyph-name="caron" unicode="&#x2c7;" horiz-adv-x="1679" 
d="M772 1584l-432 391h330l169 -141l170 141h330l-434 -391h-133z" />
    <glyph glyph-name="breve" unicode="&#x2d8;" horiz-adv-x="1378" 
d="M689 1089q-79 0 -147 29t-114.5 80t-65.5 126.5t-2 161.5h228q-26 -97 -3.5 -134.5t104.5 -37.5q87 0 106.5 37t-19.5 135h238q23 -90 4 -163t-66 -125t-116 -80.5t-147 -28.5z" />
    <glyph glyph-name="dotaccent" unicode="&#x2d9;" horiz-adv-x="1435" 
d="M718 1157q-58 0 -100 43t-42 99q0 60 42.5 101.5t99.5 41.5q60 0 100.5 -42t40.5 -101q0 -55 -39.5 -98.5t-101.5 -43.5z" />
    <glyph glyph-name="ring" unicode="&#x2da;" horiz-adv-x="1399" 
d="M-798 1584q-111 0 -187.5 76t-76.5 182q0 108 76.5 187t187.5 79q112 0 188.5 -79t76.5 -187q0 -106 -77.5 -182t-187.5 -76zM-836 1842q0 -26 5 -30t33 -4t33 4t5 30q0 28 -6 34.5t-32 6.5t-32 -6.5t-6 -34.5z" />
    <glyph glyph-name="ogonek" unicode="&#x2db;" horiz-adv-x="1432" 
d="M584 -405q-109 0 -184.5 67t-75.5 179q0 55 28 121q70 160 359 265l115 -198q-108 -34 -163 -65l179 -225q-44 -72 -111.5 -108t-146.5 -36zM550 -159q0 -17 4.5 -19.5t31.5 -2.5q47 0 57 21.5t11 106.5v11q-27 -13 -55 -36q-33 -29 -41 -43t-8 -38z" />
    <glyph glyph-name="tilde" unicode="&#x2dc;" horiz-adv-x="1377" 
d="M803 1584q-43 0 -84.5 18.5t-60 33.5t-45.5 40q-35 33 -39 33q-6 0 -6 -15.5t2 -106.5h-219q-26 143 37 244.5t186 101.5q33 0 62.5 -8.5t56 -26.5t38 -27.5t32.5 -28.5q35 -34 40 -34q8 0 8 8q1 10 -12 110h223q20 -91 1 -167t-79 -125.5t-141 -49.5z" />
    <glyph glyph-name="hungarumlaut" unicode="&#x2dd;" horiz-adv-x="1651" 
d="M456 1095l391 391h596l-418 -391h-569z" />
    <glyph glyph-name="gravecomb" unicode="&#x300;" horiz-adv-x="0" 
d="M1017 1584l-464 391h370l425 -391h-331z" />
    <glyph glyph-name="acutecomb" unicode="&#x301;" horiz-adv-x="0" 
d="M872 1584l425 391h372l-466 -391h-331z" />
    <glyph glyph-name="tildecomb" unicode="&#x303;" horiz-adv-x="0" 
d="M1051 1585q-42 0 -84 18.5t-60.5 33t-46.5 40.5q-34 33 -39 33q-4 0 -4.5 -15.5t2.5 -107.5h-221q-24 145 39 246t184 101q43 0 85.5 -19t59 -32.5t45.5 -40.5q34 -33 40 -33q7 0 7 7q1 11 -13 111h223q36 -133 -28.5 -237.5t-188.5 -104.5z" />
    <glyph glyph-name="hookabovecomb" unicode="&#x309;" horiz-adv-x="0" 
d="M570 1257q113 43 137 57t24 38q0 4 -1.5 4.5t-11.5 0.5q-34 0 -57 -15t-83 -75l-102 191q29 58 100.5 90t140.5 32q103 0 171.5 -62.5t68.5 -163.5q0 -201 -269 -290z" />
    <glyph glyph-name="dotbelowcomb" unicode="&#x323;" horiz-adv-x="0" 
d="M718 -337q-58 0 -100 43t-42 98q0 60 42.5 101.5t99.5 41.5q61 0 101 -42t40 -101q0 -54 -39.5 -97.5t-101.5 -43.5z" />
    <glyph glyph-name="Wgrave" unicode="&#x1e80;" horiz-adv-x="2345" 
d="M612 -15l-526 1409h239l372 -998l391 998h169l389 -998l374 998h239l-527 -1409h-166l-393 1008l-396 -1008h-165zM641 1975h371l426 -391h-332z" />
    <glyph glyph-name="wgrave" unicode="&#x1e81;" horiz-adv-x="1975" 
d="M531 -15l-443 1130h240l286 -732l290 732h168l290 -731l285 731h240l-444 -1130h-163l-292 734l-295 -734h-162zM455 1595h370l427 -391h-332z" />
    <glyph glyph-name="Wacute" unicode="&#x1e82;" horiz-adv-x="2345" 
d="M612 -15l-526 1409h239l372 -998l391 998h169l389 -998l374 998h239l-527 -1409h-166l-393 1008l-396 -1008h-165zM902 1584l426 391h371l-465 -391h-332z" />
    <glyph glyph-name="wacute" unicode="&#x1e83;" horiz-adv-x="1975" 
d="M531 -15l-443 1130h240l286 -732l290 732h168l290 -731l285 731h240l-444 -1130h-163l-292 734l-295 -734h-162zM717 1204l427 391h370l-465 -391h-332z" />
    <glyph glyph-name="Wdieresis" unicode="&#x1e84;" horiz-adv-x="2345" 
d="M612 -15l-526 1409h239l372 -998l391 998h169l389 -998l374 998h239l-527 -1409h-166l-393 1008l-396 -1008h-165zM896 1725q0 60 43 102t99 42q61 0 102 -42t41 -102q0 -54 -41 -97.5t-102 -43.5q-58 0 -100 42.5t-42 98.5zM1197 1725q0 60 42.5 102t99.5 42
q60 0 100 -42.5t40 -101.5q0 -54 -39.5 -97.5t-100.5 -43.5q-58 0 -100 42.5t-42 98.5z" />
    <glyph glyph-name="wdieresis" unicode="&#x1e85;" horiz-adv-x="1975" 
d="M531 -15l-443 1130h240l286 -732l290 732h168l290 -731l285 731h240l-444 -1130h-163l-292 734l-295 -734h-162zM702 1358q0 60 42.5 102t99.5 42q61 0 101 -42.5t40 -101.5q0 -55 -39.5 -99t-101.5 -44q-58 0 -100 44t-42 99zM1001 1358q0 60 43 102t99 42
q60 0 101 -42.5t41 -101.5q0 -55 -40.5 -99t-101.5 -44q-57 0 -99.5 44t-42.5 99z" />
    <glyph glyph-name="Ygrave" unicode="&#x1ef2;" horiz-adv-x="1801" 
d="M789 -15v433l-729 976h283l559 -750l559 750h280l-727 -976v-433h-225zM367 1975h371l426 -391h-333z" />
    <glyph glyph-name="ygrave" unicode="&#x1ef3;" horiz-adv-x="1547" 
d="M392 -363l245 446l-569 1032h257l441 -798l441 798h256l-816 -1478h-255zM263 1595h371l426 -391h-333z" />
    <glyph glyph-name="uni2010" unicode="&#x2010;" horiz-adv-x="837" 
d="M94 452v224h647v-224h-647z" />
    <glyph glyph-name="figuredash" unicode="&#x2012;" horiz-adv-x="1498" 
d="M106 616v225h1288v-225h-1288z" />
    <glyph glyph-name="endash" unicode="&#x2013;" horiz-adv-x="1103" 
d="M0 452v224h1103v-224h-1103z" />
    <glyph glyph-name="emdash" unicode="&#x2014;" horiz-adv-x="2018" 
d="M0 452v224h2018v-224h-2018z" />
    <glyph glyph-name="uni2015" unicode="&#x2015;" horiz-adv-x="2018" 
d="M0 452v224h2018v-224h-2018z" />
    <glyph glyph-name="quoteleft" unicode="&#x2018;" horiz-adv-x="652" 
d="M305 995q-60 0 -99 41t-39 97q0 100 29 180t86 179l203 -91q-67 -95 -88 -165q44 -41 44 -103q0 -56 -38 -97t-98 -41z" />
    <glyph glyph-name="quoteright" unicode="&#x2019;" horiz-adv-x="649" 
d="M167 1059q66 101 85 166q-44 41 -44 103q0 55 39.5 95.5t98.5 40.5q60 0 98 -40.5t38 -95.5q0 -101 -29.5 -180t-88.5 -179z" />
    <glyph glyph-name="quotesinglbase" unicode="&#x201a;" horiz-adv-x="649" 
d="M167 -145q64 99 85 165q-44 41 -44 104q0 55 39.5 95.5t98.5 40.5q60 0 98 -40.5t38 -95.5q0 -100 -28.5 -179t-86.5 -182z" />
    <glyph glyph-name="quotedblleft" unicode="&#x201c;" horiz-adv-x="976" 
d="M305 995q-60 0 -99 41t-39 97q0 100 29 180t86 179l203 -91q-67 -95 -88 -165q44 -41 44 -103q0 -56 -38 -97t-98 -41zM486 1133q0 100 29 180t86 179l203 -91q-67 -95 -88 -165q44 -41 44 -103q0 -56 -38 -97t-98 -41t-99 41t-39 97z" />
    <glyph glyph-name="quotedblright" unicode="&#x201d;" horiz-adv-x="976" 
d="M666 1492q60 0 99 -41t39 -97q0 -100 -29 -180t-86 -179l-203 91q67 95 88 165q-44 41 -44 103q0 56 38 97t98 41zM167 1086q67 95 88 165q-44 41 -44 103q0 56 38 97t98 41t99 -41t39 -97q0 -100 -29 -180t-86 -179z" />
    <glyph glyph-name="quotedblbase" unicode="&#x201e;" horiz-adv-x="961" 
d="M666 265q60 0 99 -41t39 -97q0 -100 -29 -180t-86 -179l-203 91q67 95 88 165q-44 41 -44 103q0 56 38 97t98 41zM167 -141q67 95 88 165q-44 41 -44 103q0 56 38 97t98 41t99 -41t39 -97q0 -100 -29 -180t-86 -179z" />
    <glyph glyph-name="dagger" unicode="&#x2020;" horiz-adv-x="1373" 
d="M563 -370v1105h-402v223h402v496h226v-496h403v-223h-403v-1105h-226z" />
    <glyph glyph-name="daggerdbl" unicode="&#x2021;" horiz-adv-x="1088" 
d="M429 -370v496h-402v224h402v385h-402v223h402v496h226v-496h404v-223h-404v-385h404v-224h-404v-496h-226z" />
    <glyph glyph-name="bullet" unicode="&#x2022;" horiz-adv-x="978" 
d="M504 396q-71 0 -123 51.5t-52 123.5q0 71 52 123.5t123 52.5q74 0 125.5 -52t51.5 -124t-52 -123.5t-125 -51.5z" />
    <glyph glyph-name="ellipsis" unicode="&#x2026;" horiz-adv-x="1312" 
d="M1010 -20q-57 0 -100.5 43t-43.5 98q0 62 44.5 102t99.5 40q57 0 99.5 -40t42.5 -102q0 -54 -41.5 -97.5t-100.5 -43.5zM182 121q0 62 44 102t99 40q58 0 100 -40t42 -102q0 -54 -40.5 -97.5t-101.5 -43.5q-56 0 -99.5 43t-43.5 98zM523 121q0 62 44 102t100 40
q58 0 99.5 -40.5t41.5 -101.5q0 -54 -40.5 -97.5t-100.5 -43.5q-57 0 -100.5 43t-43.5 98z" />
    <glyph glyph-name="perthousand" unicode="&#x2030;" horiz-adv-x="2365" 
d="M265 7l973 1427h222l-975 -1427h-220zM149 1021q0 119 40 214q43 96 124 150t181 54q102 0 185 -55q76 -55 118 -149t42 -214q0 -128 -42 -212q-42 -97 -121.5 -152t-181.5 -55q-94 0 -183 57q-77 52 -119.5 147.5t-42.5 214.5zM333 1021q0 -236 161 -236t161 236
q0 123 -40.5 179.5t-120.5 56.5t-120.5 -56.5t-40.5 -179.5zM885 416q0 131 41 214q41 97 121 151.5t181 54.5q92 0 185 -53q95 -71 135 -188q13 32 15 35q41 96 123 151t182 55q91 0 182 -53q78 -54 121 -150t43 -217q0 -123 -42 -210q-43 -98 -122 -151.5t-182 -53.5
q-101 0 -183 53q-96 67 -137 188q-8 -24 -13 -35q-44 -99 -123.5 -152.5t-183.5 -53.5q-102 0 -182 53q-78 56 -119.5 149.5t-41.5 212.5zM1068 416q0 -121 40 -177t120 -56q165 0 165 233q0 124 -41.5 181t-123.5 57q-80 0 -120 -57t-40 -181zM1705 416q0 -233 163 -233
q162 0 162 233q0 238 -162 238q-81 0 -122 -57t-41 -181z" />
    <glyph glyph-name="minute" unicode="&#x2032;" horiz-adv-x="570" 
d="M174 809l-4 645h230l-3 -645h-223z" />
    <glyph glyph-name="second" unicode="&#x2033;" horiz-adv-x="845" 
d="M449 809l-4 645h230l-3 -645h-223zM170 1454h230l-3 -645h-223z" />
    <glyph glyph-name="guilsinglleft" unicode="&#x2039;" horiz-adv-x="927" 
d="M486 121l-345 431l345 434h282l-340 -434l340 -431h-282z" />
    <glyph glyph-name="guilsinglright" unicode="&#x203a;" horiz-adv-x="930" 
d="M153 121l343 431l-342 434h282l347 -434l-347 -431h-283z" />
    <glyph glyph-name="fraction" unicode="&#x2044;" horiz-adv-x="689" 
d="M-293 -15l1005 1469h271l-1004 -1469h-272z" />
    <glyph glyph-name="colonmonetary" unicode="&#x20a1;" horiz-adv-x="1392" 
d="M373 110q-58 41 -97 82q-103 102 -159.5 237.5t-56.5 291.5q0 153 57 288.5t159 237.5q178 178 437 207l59 219h230l-57 -223q29 -6 31 -7l60 230h230l-79 -307q125 -75 182 -164l-146 -173q-41 62 -94 106l-235 -927q101 12 179.5 58t150.5 142l146 -171
q-91 -127 -239 -192t-319 -65h23l-56 -215h-230l62 239q-5 1 -16 3.5t-16 4.5l-64 -247h-230zM287 721q0 -217 146 -366l2 -2l-2 2l220 860q-123 -34 -217 -128q-149 -147 -149 -366zM633 233q30 -10 34 -11l254 1005q-6 1 -17 2t-16 2z" />
    <glyph glyph-name="franc" unicode="&#x20a3;" horiz-adv-x="1374" 
d="M265 -15v287h-201v223h201v959h1015v-224h-789v-426h705v-224h-705v-85h421v-223h-421v-287h-226z" />
    <glyph glyph-name="lira" unicode="&#x20a4;" horiz-adv-x="1366" 
d="M64 -15v224h220v273h-220v223h220v30h-220v221h220v5q0 148 60 256q62 117 185 180t297 63q156 0 286.5 -48.5t215.5 -151.5l-145 -177q-69 84 -151 118.5t-206 34.5q-178 0 -247 -64.5t-69 -215.5h545v-221h-545v-30h545v-223h-545v-273h769v-224h-1215z" />
    <glyph glyph-name="peseta" unicode="&#x20a7;" horiz-adv-x="3098" 
d="M280 -15v1469h571q186 0 307 -57q197 -90 261 -277h149v206h226v-206h320v-225h-320v-581q0 -70 17.5 -89.5t80.5 -19.5q55 0 80.5 18t73.5 87l68 -71l90 123l57 -11q17 -57 102 -101.5t213 -44.5q93 0 140 12t62.5 35t15.5 68q0 49 -35.5 68.5t-140.5 38.5
q-176 31 -251 61q-194 74 -216 249q-3 24 -3 50q0 92 50 171q48 78 146 122.5t234 44.5q133 0 257 -52t175 -137l-138 -181q-80 146 -294 146q-122 0 -162 -25.5t-40 -88.5q0 -53 37 -75.5t139 -39.5q5 -1 16 -3q179 -31 260 -67q192 -84 192 -282q0 -103 -56 -181
q-107 -159 -388 -159q-117 0 -225.5 34.5t-181.5 93.5q-43 -66 -119.5 -97t-159.5 -31q-149 0 -235.5 91.5t-86.5 234.5v589h-123q-8 -132 -72 -232q-72 -116 -207.5 -178t-314.5 -62h-347v-438h-224zM504 648h351q195 0 280.5 70t85.5 222t-85 221t-281 69h-351v-582z" />
    <glyph glyph-name="dong" unicode="&#x20ab;" horiz-adv-x="1432" 
d="M151 -240v225h439q-120 15 -206 71q-126 72 -198 204t-72 292q0 168 72 297q64 113 170.5 184t236.5 88h-42v224h444v186h226v-186h211v-224h-211v-1136h3v-225h-1073zM340 552q0 -105 43 -183q90 -164 283 -164q102 0 170 42q81 47 120 120.5t39 184.5q0 103 -44 187
q-46 83 -114.5 122.5t-170.5 39.5q-94 0 -168 -40q-79 -49 -118.5 -123.5t-39.5 -185.5zM741 -15h254v100q-109 -81 -254 -100zM741 1121q115 -15 208 -70q26 -15 46 -33v103h-254z" />
    <glyph glyph-name="Euro" unicode="&#x20ac;" horiz-adv-x="1600" 
d="M1016 -20q-158 0 -296 55.5t-239 156.5q-127 124 -181 290h-236v223h201v30h-201v221h236q54 167 181 291q100 102 238.5 157.5t296.5 55.5q172 0 320 -65t240 -192l-146 -171q-86 114 -182 159t-232 45q-225 0 -376 -149q-63 -65 -95 -131h684v-221h-738v-30h738v-223
h-683q31 -66 94 -129q151 -148 376 -148q135 0 231.5 45t182.5 158l146 -171q-92 -127 -240.5 -192t-319.5 -65z" />
    <glyph glyph-name="trademark" unicode="&#x2122;" horiz-adv-x="1860" 
d="M835 1423h129l345 -554l344 554h129v-886h-160v535l-268 -430h-91l-268 426v-531h-160v886zM66 1264v159h766v-159h-302v-727h-163v727h-301z" />
    <glyph glyph-name="estimated" unicode="&#x212e;" horiz-adv-x="1871" 
d="M937 -20q-163 0 -310.5 56.5t-260.5 157.5q-114 101 -178 237t-64 287q0 153 64 289.5t178 239.5q112 101 259.5 157t311.5 56q163 0 310.5 -56.5t257.5 -156.5q115 -102 178.5 -238.5t63.5 -290.5v-110h-1171v-251q122 -150 363 -150q256 0 414 212h318
q-51 -124 -161.5 -224.5t-261 -157.5t-311.5 -57zM576 833h722v251q-151 148 -359 148q-206 0 -363 -152v-247z" />
    <glyph glyph-name="arrowleft" unicode="&#x2190;" horiz-adv-x="1083" 
d="M400 155l-300 416l300 422h280l-215 -307h556v-226h-557l218 -305h-282z" />
    <glyph glyph-name="arrowup" unicode="&#x2191;" horiz-adv-x="1062" 
d="M414 129v557l-304 -217v282l417 298l425 -297v-281l-307 215v-557h-231z" />
    <glyph glyph-name="arrowright" unicode="&#x2192;" horiz-adv-x="1085" 
d="M406 154l215 306h-557v226h557l-218 306h282l300 -416l-300 -422h-279z" />
    <glyph glyph-name="arrowdown" unicode="&#x2193;" horiz-adv-x="1062" 
d="M535 100l-425 296v278l307 -212v556h230v-556l305 216v-280z" />
    <glyph glyph-name="arrowboth" unicode="&#x2194;" horiz-adv-x="1360" 
d="M405 155l-299 416l298 422h551l299 -422l-300 -416h-549zM469 460l211 -295l211 295h-422zM469 686h420l-210 302z" />
    <glyph glyph-name="arrowupdn" unicode="&#x2195;" horiz-adv-x="1064" 
d="M535 100l-425 296v278l307 -212v466l-303 -215v281l417 299l423 -298v-280l-305 213v-466l303 216v-280z" />
    <glyph glyph-name="partialdiff" unicode="&#x2202;" horiz-adv-x="1521" 
d="M717 -20q-151 0 -263 58q-119 63 -186.5 176t-67.5 257q0 148 67 258q69 110 190.5 171.5t275.5 61.5q133 0 259 -59q47 -22 96 -61q-10 94 -46 173q-58 117 -147 169t-230 52q-105 0 -196 -21t-144 -52l-54 215q23 27 144 54.5t250 27.5q198 0 343 -87q151 -86 232 -253
t81 -399q0 -212 -62 -375q-66 -173 -205 -269.5t-337 -96.5zM426 471q0 -81 35 -139q39 -66 99.5 -96.5t156.5 -30.5q117 0 182 40q140 80 140 226q0 73 -37 131q-42 68 -106.5 101.5t-162.5 33.5q-158 0 -232.5 -66.5t-74.5 -199.5z" />
    <glyph glyph-name="emptyset" unicode="&#x2205;" horiz-adv-x="1296" 
d="M244 135l-151 164l160 151q-56 98 -56 215q0 118 62 227q60 102 162.5 161.5t224.5 59.5q118 0 222 -61l20 -10l155 146l161 -162l-163 -152q52 -95 52 -209q0 -124 -62 -225q-59 -104 -161 -164t-224 -60t-228 63l-9 6zM424 665q0 -25 5 -52l283 264q-30 10 -66 10
q-53 0 -112 -28q-57 -38 -83.5 -84t-26.5 -110zM585 450q22 -7 61 -7q62 0 109 31q58 33 85.5 79t27.5 112q0 25 -4 44z" />
    <glyph glyph-name="product" unicode="&#x220f;" horiz-adv-x="1754" 
d="M280 -370v1824h1194v-1824h-226v1600h-744v-1600h-224z" />
    <glyph glyph-name="summation" unicode="&#x2211;" horiz-adv-x="1383" 
d="M106 -370v157l625 758l-607 753v156h1169v-224h-824l515 -640v-96l-529 -640h846v-224h-1195z" />
    <glyph glyph-name="minus" unicode="&#x2212;" horiz-adv-x="1354" 
d="M207 606v225h940v-225h-940z" />
    <glyph glyph-name="radical" unicode="&#x221a;" horiz-adv-x="1683" 
d="M808 -370l-385 976h-265v225h422l307 -787l529 1487h247l-688 -1901h-167z" />
    <glyph glyph-name="infinity" unicode="&#x221e;" horiz-adv-x="1891" 
d="M540 303q-117 0 -215 53q-99 55 -155 150.5t-56 214.5q0 116 56 211q58 96 155 150t215 54q121 0 214 -42q108 -52 191 -163q73 96 169.5 150.5t235.5 54.5q120 0 218 -56q96 -53 152.5 -147.5t56.5 -209.5q0 -118 -57 -215q-57 -95 -154 -150t-216 -55q-122 0 -212 42
q-113 54 -193 163q-73 -96 -169 -150.5t-236 -54.5zM340 721q0 -56 24 -98q30 -51 70.5 -73t105.5 -22q73 0 120 22q49 26 83 64t73 104h-1q-29 47 -72 109q-40 45 -84.5 65t-118.5 20q-55 0 -105 -25q-52 -28 -73.5 -66t-21.5 -100zM1074 722q41 -69 75 -108q41 -48 83 -67
t118 -19q62 0 106 24q51 30 72.5 69t21.5 102q0 59 -24 99q-28 48 -68.5 69t-107.5 21q-69 0 -120 -24q-47 -24 -81 -62t-75 -104z" />
    <glyph glyph-name="integral" unicode="&#x222b;" horiz-adv-x="871" 
d="M229 -376q-102 0 -189.5 45.5t-119.5 132.5l152 152q50 -69 74.5 -87t81.5 -18q60 0 76 19.5t16 91.5v1250q0 143 86 234.5t233 91.5q64 0 123 -16.5t112 -58.5t77 -105l-177 -165q-21 78 -43.5 99.5t-89.5 21.5q-61 0 -77.5 -19.5t-16.5 -91.5v-1251q0 -142 -86 -234
t-232 -92z" />
    <glyph glyph-name="approxequal" unicode="&#x2248;" horiz-adv-x="1302" 
d="M837 309q-38 0 -74.5 10t-59 20t-54 34t-40 32t-36.5 35q-38 40 -59 54t-49 14q-52 0 -65 -36.5t-6 -158.5h-222q-16 146 36 253.5t152 146.5h-188q-21 183 63 300t230 117q47 0 88 -12t75.5 -35.5t53.5 -40.5t46 -44q54 -51 71 -59q18 -9 38 -9q53 0 66 37.5t2 157.5
h225q16 -144 -34.5 -251.5t-151.5 -146.5h186q20 -181 -62 -299.5t-231 -118.5zM393 724q27 7 72 7q47 0 88 -12t75.5 -35t54 -40t45.5 -44q30 -30 43 -41t29.5 -19t36.5 -8q51 0 65 35t4 148q-35 -8 -69 -8q-47 0 -87.5 11.5t-76.5 36.5t-53 39.5t-47 44.5q-40 41 -60.5 55
t-47.5 14q-50 0 -64.5 -36t-7.5 -148z" />
    <glyph glyph-name="notequal" unicode="&#x2260;" horiz-adv-x="1465" 
d="M285 168l138 239h-160v225h290l100 177h-390v223h520l137 239h259l-138 -239h160v-223h-289l-101 -177h390v-225h-521l-138 -239h-257z" />
    <glyph glyph-name="lessequal" unicode="&#x2264;" horiz-adv-x="1369" 
d="M1153 243l-938 395v164l938 393v-244l-553 -230l553 -230v-248zM215 -15v224h938v-224h-938z" />
    <glyph glyph-name="greaterequal" unicode="&#x2265;" horiz-adv-x="1376" 
d="M219 243v248l553 230l-553 230v244l938 -393v-164zM219 -15v224h938v-224h-938z" />
    <glyph glyph-name="uni27E8" unicode="&#x27e8;" horiz-adv-x="612" 
d="M346 -370l-322 952l322 949h232l-317 -949l317 -952h-232z" />
    <glyph glyph-name="uni27E9" unicode="&#x27e9;" horiz-adv-x="609" 
d="M36 -370l315 952l-315 949h231l320 -949l-320 -952h-231z" />
    <glyph glyph-name="uniF8FF" unicode="&#xf8ff;" horiz-adv-x="2262" 
d="M1148 80q-151 0 -288.5 59.5t-237 160t-158.5 238.5t-59 289t59 289t159 237.5t238 158.5t289 59t288.5 -59t237.5 -159t159 -237.5t59 -288.5q0 -203 -99.5 -375t-271 -272t-375.5 -100zM404 -219v195h79q34 0 58 -12q49 -23 49 -85q0 -32 -13 -52q-27 -46 -95 -46h-78z
M451 -183h29q22 0 35 6q29 14 29 56q0 22 -7 35q-15 27 -57 27h-29v-124zM495 828q0 -134 51.5 -256t139 -210.5t209 -141t255.5 -52.5q178 0 329 88t239 239t88 329q0 134 -52 255.5t-139.5 209.5t-208 140.5t-253.5 53.5q-134 0 -256 -52t-210 -139.5t-140 -209
t-52 -254.5zM607 -146q0 21 10 39q20 36 70 36q35 0 56 -18q23 -21 23 -56v-11h-113q0 -8 4 -18q11 -17 33 -17q10 0 14 2q14 3 18 15l42 -3q-3 -15 -13 -23q-19 -21 -61 -21q-26 0 -44 9q-39 19 -39 66zM653 -131h69q-2 8 -4 13q-8 17 -30 17q-13 0 -19 -5q-14 -8 -16 -25z
M727 958q12 -2 15 -5q69 -27 131 -36q50 -5 96 3q53 12 63 16q3 0 6.5 1.5t7.5 3.5t7 3q-7 4 -21.5 11t-22.5 11t-18.5 12t-17.5 17h25q53 0 100 25q82 51 182 81q31 10 77 15q4 0 28.5 1t29.5 0q72 -2 118 -44q6 -6 12.5 -13.5t14 -16.5t11.5 -14q-1 -1 -1 -2l-7 2
q-61 23 -111 5t-83 -71q-15 -28 -33 -74q-10 -23 -31 -73t-32 -76q-44 -85 -87 -135q-38 -46 -87 -77q-59 -45 -155 -73q-2 0 -4 -1h-1h-2l32 30q19 18 33 58q44 120 60 170q35 101 77 175v3q-2 -4 -8 -9.5t-7 -7.5q-13 -15 -14 -16q-30 -46 -41 -76q-3 -8 -11 -8
q-132 4 -235 89q-52 50 -79 74q-2 2 -7.5 10t-9.5 12zM778 -176l45 2q5 -18 30 -18q27 0 27 14q0 12 -21 15l-29 5q-48 9 -48 42q0 14 9 24q18 21 61 21q65 0 71 -43l-42 -3q-4 18 -28 18q-25 0 -25 -15q0 -11 21 -15l30 -5q48 -8 48 -39q0 -13 -10 -25q-18 -23 -64 -23
q-69 0 -75 45zM944 -33q0 8 7.5 14t17.5 6t17 -6t7 -14q0 -9 -7 -15t-17 -6q-11 0 -18 6t-7 15zM946 -219v146h46v-146h-46zM1012 -145q0 25 9 41q18 33 58 33q15 0 23 -4q17 -7 25 -22h1v24h46v-147q0 -18 -11 -31q-21 -25 -70 -25q-66 0 -76 41l42 4l7 -8q8 -8 28 -8
q34 0 34 28v26h-2q-2 -4 -9 -11q-14 -12 -38 -12q-20 0 -34 7q-33 17 -33 64zM1059 -145q0 -14 4 -22q8 -19 31 -19q34 0 34 41q0 14 -4 22q-8 20 -30 20q-11 0 -19 -5q-16 -10 -16 -37zM1201 -219v146h45v-26h1q12 28 49 28q19 0 30 -7q27 -13 27 -48v-93h-46v86
q0 29 -29 29q-7 0 -17 -4q-15 -8 -15 -26v-85h-45zM1373 -146q0 21 10 39q20 36 72 36q25 0 43 -9q38 -20 38 -66q0 -23 -10 -40q-21 -35 -71 -35q-25 0 -44 9q-38 21 -38 66zM1420 -146q0 -14 4 -23q8 -21 31 -21q11 0 19 6q16 11 16 38q0 9 -4 23q-10 21 -31 21
q-12 0 -19 -6q-16 -10 -16 -38zM1538 -73h48l35 -104h2l34 104h48l-57 -146h-52zM1707 -178q0 23 19 34q15 9 43 11q13 1 23 3q17 1 17 10v1q0 19 -25 19q-24 0 -29 -17l-43 3q4 13 13 23q20 20 60 20q28 0 49 -12q21 -11 21 -37v-99h-44v21h-1q-5 -8 -11 -12
q-14 -11 -37 -11q-18 0 -28 5q-27 10 -27 38zM1751 -177q0 -16 24 -16q11 0 18 3q16 8 16 24v15q-5 -3 -31 -6q-10 -2 -15 -4q-12 -5 -12 -16zM1827 -22q0 21 14.5 35.5t35.5 14.5t35.5 -14.5t14.5 -35.5t-14.5 -35.5t-35.5 -14.5t-35.5 14.5t-14.5 35.5zM1842 -22
q0 -15 10 -25t25 -10t25 10t10 25t-10 25t-25 10t-25 -10t-10 -25zM1860 -44v46h18q17 0 17 -14q0 -8 -7 -13l10 -19h-13l-8 15h-6v-15h-11zM1871 -18h7q7 0 7 5q0 3 -7 3h-7v-8z" />
    <glyph glyph-name="tildecomb_acutecomb" horiz-adv-x="0" 
d="M801 1123q-84 0 -178 69q-24 20 -31 24.5t-15 4.5q49 0 51 23q1 16 -15 21q-23 8 -33 -27q-12 -37 1 -113h-219q-33 107 7.5 193.5t130.5 115.5l306 239h160l49 -137l-135 -98h133q43 -125 -23.5 -220t-188.5 -95zM772 1359q18 -13 29 -13q4 0 4 4.5t-3 31.5z" />
    <glyph glyph-name="_Designova" horiz-adv-x="2122" 
d="M1059 -161q-174 0 -333 68.5t-274 184t-183.5 275t-68.5 333.5q1 140 45 271t123.5 236.5t185 185t236.5 123t271 43.5q175 0 334 -68t274.5 -183t184 -274t68.5 -334t-68.5 -334.5t-184 -275t-275.5 -183.5t-335 -68zM304 700q0 -155 59.5 -295.5t161 -242t241.5 -161.5
t295 -60q154 0 294 60t241.5 161.5t161.5 241.5t60 294q0 207 -101 381.5t-274.5 276t-379.5 101.5q-154 0 -294.5 -59.5t-242.5 -161t-162 -241.5t-60 -295zM573 850q12 0 17 -5q73 -29 154 -41q60 -7 108 4q32 5 71 18q6 0 15 4.5l11 5.5q-8 5 -24 12.5t-25.5 12.5
t-21.5 14t-21 19h28q52 0 115 27q107 68 211 98q47 13 88 13q9 0 33 2t35 1q88 -5 136 -52q7 -6 14.5 -14.5t16 -19t13.5 -16.5v-2q-4 2 -10 2q-70 27 -127 6.5t-96 -79.5q-9 -16 -23 -50t-16 -39q-11 -23 -35 -81.5t-39 -88.5q-49 -99 -99 -159q-23 -31 -98 -88
q-73 -52 -181 -83h-10l37 31q22 20 41 69q12 35 35.5 101.5t33.5 96.5q41 117 86 200v2q-11 -13 -14 -18q-11 -8 -15 -21q-34 -42 -50 -87q-6 -7 -13 -7q-157 8 -271 104q-13 13 -43.5 41.5t-44.5 42.5q-8 10 -22 24z" />
    <glyph glyph-name="_Origin" horiz-adv-x="3007" 
d="M200 1305h2607v-67h-2607v67zM200 146v67h2607v-67h-2607zM304 415v236h56v-236h-56zM347 811v236h197v-43h-143v-52h129v-42h-129v-56h143v-43h-197zM397 415v236h46l118 -143v143h54v-236h-44l-118 145v-145h-56zM584 811v236h45l117 -143v143h54v-236h-44l-118 145
v-145h-54zM739 415v236h116q47 0 71.5 -16t24.5 -44q0 -37 -35 -54q4 0 4 -2q37 -16 37 -56q0 -64 -95 -64h-123zM795 456h63q43 0 43 29t-43 29h-63v-58zM795 558h56q44 0 44 27q0 29 -44 29h-56v-56zM839 1004v43h207v-43h-76v-193h-54v193h-77zM984 415v236h197v-44h-143
v-51h129v-42h-129v-54h141v-45h-195zM1071 1047h58l54 -166l56 166h50l54 -168l56 168h52l-77 -236h-60l-52 161l-54 -161h-58zM1218 415v236h108q35 0 56 -8q48 -25 48 -77q0 -27 -13 -46q-16 -23 -39 -31l50 -74h-58l-46 66h-50v-66h-56zM1274 525h50q50 0 50 41t-50 41
h-50v-82zM1457 415v236h54v-191h141v-45h-195zM1461 929q0 52 37 87q35 35 92 35q58 0 93 -35q37 -34 37 -87q0 -50 -37 -87q-35 -35 -91 -35q-59 0 -94 35q-37 39 -37 87zM1517 929q0 -33 20.5 -54t52.5 -21t53 21t21 54q0 34 -21 55.5t-53 21.5t-52.5 -21.5t-20.5 -55.5z
M1691 415v236h54v-236h-54zM1751 811v236h108q35 0 54 -8q48 -23 48 -77q0 -27 -13 -46q-11 -19 -39 -31l52 -74h-60l-44 66h-52v-66h-54zM1784 415v236h46l116 -143v143h56v-236h-45l-119 145v-145h-54zM1805 921h50q50 0 50 41q0 42 -50 42h-50v-83zM1988 811v236h197v-43
h-143v-52h128v-42h-128v-99h-54zM2037 446q0 15 9.5 24t24.5 9q13 0 22 -9.5t9 -23.5q0 -15 -9 -33l-18 -50h-35l16 54q-19 6 -19 29zM2207 811v236h195v-43h-141v-52h127v-42h-127v-56h141v-43h-195zM2237 415v236h107q40 0 69 -15q62 -29 62 -103q0 -38 -17 -62
q-31 -56 -114 -56h-107zM2293 460h49q25 0 42 9q35 18 35 64q0 26 -8 39q-20 35 -69 35h-49v-147zM2442 811v236h45l119 -143v143h54v-236h-46l-118 145v-145h-54zM2506 415v236h197v-44h-143v-51h129v-42h-129v-54h141v-45h-195z" />
    <glyph glyph-name="_VendorID" horiz-adv-x="1699" 
d="M200 1577h1299v-1582h-1299v1582zM204 -127q0 18 10 28t24 10q10 0 17 -4l5 -7v35h17v-97h-17v12l-5 -9q-10 -6 -21 -6q-30 0 -30 38zM223 -127q0 -23 17 -23q20 0 20 23v2q0 23 -18 23q-19 0 -19 -25zM270 63h1159v1445h-1159v-1445zM290 -127q0 17 10 27.5t26 10.5
t25.5 -10t9.5 -26q0 -3 -2 -7h-50q2 -18 17 -18q14 0 16 12h17q-6 -27 -33 -27q-36 0 -36 38zM309 -122h33q-3 20 -16 20q-14 0 -17 -20zM366 -141h19q4 -13 12 -13q12 0 12 10q0 5 -16 12q-24 7 -24 21q0 22 28 22t28 -22h-18q-3 9 -10 9q-9 0 -9 -8q0 -6 16 -12
q22 -4 22 -20q0 -23 -29 -23q-27 0 -31 24zM422 396q0 79 62 166l129 183h86l-112 -160q12 4 30 4q83 0 137 -55.5t54 -137.5t-55.5 -138.5t-135.5 -56.5q-81 0 -138 57t-57 138zM422 1024q0 73 62 164l129 189h86l-113 -162q10 2 31 2q83 0 137 -55t54 -138
q0 -81 -55 -136.5t-136 -55.5t-138 56t-57 136zM437 -75q0 10 11 10t11 -10t-11 -10t-11 10zM439 -162v72h18v-72h-18zM470 -127q0 18 10 28t25 10q11 0 16 -4l5 -7v10h19v-54q0 -11 -2 -15q0 -15 -10 -23.5t-26 -8.5q-35 0 -35 24v2h18v-2q0 -10 17 -10q16 0 19 17v10
l-5 -9q-15 -3 -19 -3q-32 0 -32 35zM490 -125q0 -25 17 -25q19 0 19 23v2q0 23 -19 23q-17 0 -17 -23zM495 396q0 -57 34 -91t88 -34q53 0 86.5 34.5t33.5 90.5q0 52 -33.5 86t-86.5 34q-54 0 -88 -33.5t-34 -86.5zM495 1024q0 -55 34 -89.5t88 -34.5q52 0 86 35t34 89
t-33.5 88t-86.5 34q-55 0 -88.5 -33t-33.5 -89zM560 -162v72h19v-13l5 10q9 4 17 4q22 0 27 -21q1 -4 1 -12v-40h-20v46q0 14 -13 14q-17 0 -17 -28v-32h-19zM639 -127q0 17 10 27.5t26 10.5q37 0 37 -38t-37 -38q-16 0 -26 10.5t-10 27.5zM657 -127q0 -23 18 -23
q20 0 20 23q0 25 -20 25q-18 0 -18 -25zM718 -90h19l19 -60l17 60h19l-26 -72h-23zM798 -142q0 22 40 22h4v9q0 9 -12 9q-14 0 -14 -12h-17q0 25 31 25q26 0 28 -21v-52h-15l-1 8l-4 -6q-8 -5 -18 -5q-9 0 -15.5 6t-6.5 17zM816 -142q0 -8 10 -8q6 0 11 4t5 9v7
q-26 3 -26 -12zM871 -104v12h7v10q0 21 26 21h8v-15q-15 2 -15 -7v-9h15v-12h-15v-58h-19v58h-7zM888 396q0 45 12.5 81.5t46.5 84.5l129 183h88l-115 -160q12 4 33 4q81 0 136 -55.5t55 -137.5t-55.5 -138.5t-135.5 -56.5q-81 0 -137.5 56.5t-56.5 138.5zM888 1024
q0 43 13 79t46 85l129 189h88l-116 -162q10 2 34 2q81 0 136 -55.5t55 -137.5q0 -81 -55.5 -136.5t-135.5 -55.5q-81 0 -137.5 55.5t-56.5 136.5zM917 -127q0 38 38 38q16 0 25.5 -10.5t9.5 -27.5t-9.5 -27.5t-25.5 -10.5q-38 0 -38 38zM936 -127q0 -23 19 -23q17 0 17 23
q0 25 -17 25q-19 0 -19 -25zM958 396q0 -56 34.5 -90.5t89.5 -34.5q52 0 84.5 34.5t32.5 90.5q0 53 -32.5 86.5t-84.5 33.5q-55 0 -89.5 -33.5t-34.5 -86.5zM958 1024q0 -54 34.5 -89t89.5 -35q52 0 84.5 35t32.5 89t-33 88t-84 34q-55 0 -89.5 -34t-34.5 -88zM1002 -162v72
h17v-13l8 10q7 4 17 4q22 0 25 -21v-52h-19v46q-4 14 -11 14q-20 0 -20 -28v-32h-17zM1078 -104v12h11v17h19v-17h13v-12h-13v-38q2 -13 12 -8v-13h-11q-20 0 -20 13v46h-11zM1127 -141h20q1 -13 13 -13q10 0 10 10q0 5 -10 10q-3 1 -5 2q-23 6 -23 21q0 22 26 22t32 -22
h-21q0 9 -12 9q-6 0 -6 -8q0 -6 14 -12q25 -5 25 -20q0 -23 -30 -23q-28 0 -33 24zM1196 -155q0 5 3.5 9t8.5 4t8.5 -4t3.5 -9q0 -10 -12 -10t-12 10zM1228 -127q0 17 10.5 27.5t24.5 10.5q15 0 24 -7.5t9 -19.5h-18q-3 14 -15 14q-17 0 -17 -25q0 -11 5 -17t12 -6
q13 0 15 12h18q-2 -27 -33 -27q-35 0 -35 38zM1303 -127q0 38 38 38q35 0 35 -38t-35 -38q-38 0 -38 38zM1321 -127q0 -11 6 -17t14 -6q17 0 17 23q0 25 -17 25q-8 0 -14 -7t-6 -18zM1389 -162v72h19v-12l6 9q7 4 13 4q18 0 23 -14l7 10q5 4 15 4t16.5 -5t6.5 -12
q1 -5 1 -16v-40h-18v37q0 1 -0.5 5t-0.5 6q0 12 -13 12q-12 0 -12 -23v-37h-18v48q-4 12 -13 12q-13 0 -13 -23v-37h-19z" />
    </font>
</defs>
</svg>
